<?xml version="1.0" encoding="utf-8"?>
<!-- Generator: Adobe Illustrator 19.2.1, SVG Export Plug-In . SVG Version: 6.00 Build 0)  -->
<svg version="1.1" id="Layer_1" xmlns="http://www.w3.org/2000/svg" xmlns:xlink="http://www.w3.org/1999/xlink" x="0px" y="0px"
	 viewBox="0 0 80 78.5" style="enable-background:new 0 0 80 78.5;" xml:space="preserve">
<path d="M75.6,12.4c-0.5-0.6-4.4,1.4-10.4,5.3C59.3,11,50.6,6.7,40.1,6.7c-19.3,0-33,14.8-33,32.6v0.2c0,6.6,1.9,12.9,5.3,18
	c-5.4,4.7-8.4,7.9-7.9,8.5c0.5,0.6,4.3-1.4,10.4-5.3c5.8,6.8,14.6,11.2,25.2,11.2c19.3,0,33-14.8,33-32.6v-0.2
	c0-6.7-1.9-12.9-5.4-18.1C73,16.2,76.1,13,75.6,12.4z M18.7,39.2v-0.2c0-12.2,8.7-22.2,21.2-22.2c6.5,0,12.1,2.8,15.9,7.2
	c-3.9,2.7-8.3,5.8-12.8,9.2c-0.9-0.5-1.9-0.8-3-0.8c-3.6,0-6.5,3-6.5,6.8c0,0.4,0,0.7,0.1,1.1c-4.5,3.4-8.6,6.7-12.3,9.7
	C19.6,46.8,18.7,43.1,18.7,39.2z M61.3,39.2v0.2c0,12.2-8.7,22.2-21.2,22.2c-6.6,0-12.2-2.8-16-7.3c3.9-2.7,8.2-5.8,12.8-9.2
	c0.9,0.5,2,0.8,3.1,0.8c3.6,0,6.5-3,6.5-6.8c0-0.4,0-0.8-0.1-1.2c4.5-3.4,8.6-6.7,12.3-9.7C60.4,31.6,61.3,35.3,61.3,39.2z"/>
</svg>
