<?xml version="1.0" encoding="utf-8"?>
<!-- Generator: Adobe Illustrator 19.2.1, SVG Export Plug-In . SVG Version: 6.00 Build 0)  -->
<svg version="1.1" id="Layer_1" xmlns="http://www.w3.org/2000/svg" xmlns:xlink="http://www.w3.org/1999/xlink" x="0px" y="0px"
	 viewBox="0 0 644.6 97.4" style="enable-background:new 0 0 644.6 97.4;" xml:space="preserve">
<polygon points="8.5,17.6 44.5,17.6 7.3,62.6 7.3,70.8 58.9,70.8 58.9,61 21.7,61 58.9,16 58.9,7.8 8.5,7.8 "/>
<path d="M102.1,6.7c-19.3,0-33,14.8-33,32.6v0.2c0,17.7,13.5,32.4,32.8,32.4c19.3,0,33-14.8,33-32.6v-0.2
	C134.9,21.4,121.4,6.7,102.1,6.7z M123.3,39.5c0,12.2-8.7,22.2-21.2,22.2c-12.5,0-21.4-10.2-21.4-22.4v-0.2
	c0-12.2,8.7-22.2,21.2-22.2c12.5,0,21.4,10.2,21.4,22.4V39.5z"/>
<polygon points="272.4,51.4 238.7,7.8 228.4,7.8 228.4,70.8 239.3,70.8 239.3,26 274.1,70.8 283.3,70.8 283.3,7.8 272.4,7.8 "/>
<rect x="299.3" y="7.8" width="11.1" height="63"/>
<polygon points="354.8,56.2 335.8,7.8 323.6,7.8 349.7,71.2 359.5,71.2 385.7,7.8 373.7,7.8 "/>
<polygon points="409.3,44 440.9,44 440.9,34.1 409.3,34.1 409.3,17.7 445,17.7 445,7.8 398.3,7.8 398.3,70.8 445.4,70.8 445.4,60.9 
	409.3,60.9 "/>
<path d="M511.8,27.9v-0.2c0-5.5-1.9-10.2-5.2-13.6c-4.1-4-10.3-6.3-18.2-6.3h-28.1v63h11.1v-22h13.7h0.2l15.5,22h13l-17-23.8
	C505.6,44.4,511.8,38.2,511.8,27.9z M471.4,39V17.9h16.1c8.2,0,13,3.7,13,10.4v0.2c0,6.4-5,10.5-13,10.5H471.4z"/>
<path d="M551.5,34.3c-12.1-2.9-14.9-5-14.9-9.9v-0.2c0-4.1,3.8-7.5,10.3-7.5c5.8,0,11.4,2.2,17.1,6.5l5.9-8.4
	c-6.4-5.1-13.7-7.9-22.9-7.9c-12.5,0-21.5,7.5-21.5,18.3v0.2c0,11.6,7.6,15.6,21,18.8c11.7,2.7,14.2,5.1,14.2,9.6V54
	c0,4.8-4.3,7.9-11.2,7.9c-7.8,0-13.9-3-19.9-8.2l-6.7,7.9c7.6,6.8,16.6,10.1,26.3,10.1c13.2,0,22.5-7,22.5-18.8v-0.2
	C571.8,42.3,564.8,37.5,551.5,34.3z"/>
<polygon points="596.3,60.9 596.3,44 627.9,44 627.9,34.1 596.3,34.1 596.3,17.7 632,17.7 632,7.8 585.3,7.8 585.3,70.8 632.4,70.8 
	632.4,60.9 "/>
<path d="M215.9,12.4c-0.5-0.6-4.4,1.4-10.4,5.3c-5.8-6.8-14.6-11.1-25.1-11.1c-19.3,0-33,14.8-33,32.6v0.2c0,6.6,1.9,12.9,5.3,18
	c-5.4,4.7-8.4,7.9-7.9,8.5c0.5,0.6,4.3-1.4,10.4-5.3c5.8,6.8,14.6,11.2,25.2,11.2c19.3,0,33-14.8,33-32.6v-0.2
	c0-6.7-1.9-12.9-5.4-18.1C213.3,16.2,216.3,13.1,215.9,12.4z M158.9,39.3v-0.2c0-12.2,8.7-22.2,21.2-22.2c6.5,0,12.1,2.8,15.9,7.2
	c-3.9,2.7-8.3,5.8-12.8,9.2c-0.9-0.5-1.9-0.8-3-0.8c-3.6,0-6.5,3-6.5,6.8c0,0.4,0,0.7,0.1,1.1c-4.5,3.4-8.6,6.7-12.3,9.7
	C159.9,46.9,158.9,43.2,158.9,39.3z M201.6,39.3v0.2c0,12.2-8.7,22.2-21.2,22.2c-6.6,0-12.2-2.8-16-7.3c3.9-2.7,8.2-5.8,12.8-9.2
	c0.9,0.5,2,0.8,3.1,0.8c3.6,0,6.5-3,6.5-6.8c0-0.4,0-0.8-0.1-1.2c4.5-3.4,8.6-6.7,12.3-9.7C200.7,31.6,201.6,35.4,201.6,39.3z"/>
</svg>
