<?xml version="1.0" encoding="utf-8"?>
<!-- Generator: Adobe Illustrator 24.0.1, SVG Export Plug-In . SVG Version: 6.00 Build 0)  -->
<svg version="1.1" id="Layer_1" xmlns="http://www.w3.org/2000/svg" xmlns:xlink="http://www.w3.org/1999/xlink" x="0px" y="0px"
	 viewBox="0 0 1000 240.2" style="enable-background:new 0 0 1000 240.2;" xml:space="preserve">
<style type="text/css">
	.st0{fill:#231F20;}
	.st1{fill:#FFFFFF;}
</style>
<polygon points="1.9,2.1 1.9,17.8 59.5,17.8 0,90.2 0,103.3 82.6,103.3 82.6,87.7 23,87.7 82.6,15.2 82.6,2.1 "/>
<path d="M117.6,52.7v-0.3c0-19.6,13.9-35.7,33.9-35.7c20,0,34.2,16.3,34.2,36.1v0.3c0,19.6-14.1,35.7-33.9,35.7
	C131.8,88.8,117.6,72.5,117.6,52.7 M98.9,52.7v0.3c0,28.5,21.6,52.1,52.5,52.1c30.9,0,52.8-23.9,52.8-52.4v-0.3
	c0-28.5-21.6-52.1-52.5-52.1S98.9,24.3,98.9,52.7"/>
<polygon points="424.2,2.1 424.2,72.1 370.2,2.1 353.8,2.1 353.8,103.3 371.2,103.3 371.2,31.4 426.7,103.3 441.6,103.3 441.6,2.1 
	"/>
<rect x="467" y="2.1" width="17.8" height="101.2"/>
<polygon points="586.1,2.1 555.8,79.9 525.4,2.1 505.9,2.1 547.8,104 563.4,104 605.3,2.1 "/>
<polygon points="625.4,2.1 625.4,103.3 701,103.3 701,87.5 643.2,87.5 643.2,60.3 693.8,60.3 693.8,44.3 643.2,44.3 643.2,18 
	700.2,18 700.2,2.1 "/>
<path d="M742.7,52.1V18.3h25.8c13,0,20.8,6,20.8,16.7v0.3c0,10.4-8.2,16.8-20.8,16.8H742.7z M724.6,2.1h-0.2v101.2h17.8V67.9h21.9
	h0.5l24.8,35.4h20.8L783,65c14.1-3.9,24-14.1,24-30.6v-0.3c0-8.9-3-16.3-8.3-21.8c-6.6-6.5-16.5-10.2-29.1-10.2H724.6z"/>
<path d="M829,30.1v0.3c0,18.6,12.2,25.1,33.6,30.2c18.7,4.4,22.7,8.2,22.7,15.4v0.3c0,7.6-7,12.8-17.9,12.8
	c-12.5,0-22.2-4.9-31.8-13.1l-10.7,12.8c12.2,11,26.7,16.2,42.1,16.2c21.1,0,36-11.3,36-30.2v-0.3c0-16.8-11-24.6-32.3-29.8
	c-19.2-4.7-23.8-8.1-23.8-15.8v-0.3c0-6.8,6.1-12.1,16.5-12.1c9.3,0,18.2,3.7,27.4,10.5l9.4-13.4c-10.2-8.2-21.9-12.8-36.6-12.8
	C843.4,0.6,829,12.8,829,30.1"/>
<polygon points="924.5,2.1 924.5,103.3 1000,103.3 1000,87.5 942.2,87.5 942.2,60.3 992.8,60.3 992.8,44.3 942.2,44.3 942.2,18 
	999.2,18 999.2,2.1 "/>
<path d="M286.9,52.6c0-0.5,0-1.1-0.2-1.6c7.2-5.5,13.9-10.8,19.8-15.7c2.7,5.3,4.2,11.2,4.2,17.5v0.3c0,19.7-13.9,35.7-33.9,35.7
	c-10.4,0-19.4-4.5-25.4-11.5c6.2-4.4,13.3-9.4,20.5-14.9c1.4,0.8,3,1.1,4.6,1.1C282.2,63.6,286.9,58.7,286.9,52.6 M242.6,52.7v-0.3
	c0-19.7,13.9-35.7,33.9-35.7c10.4,0,19.4,4.5,25.4,11.5c-6.2,4.4-13.3,9.4-20.5,14.9c-1.4-0.8-3-1.1-4.6-1.1
	c-5.8,0-10.4,4.9-10.4,11c0,0.5,0,1.1,0.2,1.6c-7.2,5.5-13.9,10.8-19.8,15.7C244,64.9,242.6,59,242.6,52.7 M224.2,52.6v0.3
	c0,10.7,3,20.7,8.5,29c-8.6,7.6-13.4,12.8-12.6,13.7c0.8,1,7-2.3,16.6-8.4c9.3,10.8,23.4,18,40,18c30.9,0,52.8-24.1,52.8-52.6v-0.3
	c0-10.7-3-20.7-8.5-28.9c8.5-7.4,13.3-12.6,12.6-13.7c-0.8-1-7,2.3-16.6,8.4c-9.3-10.8-23.4-18-40-18C246.1,0,224.2,24.1,224.2,52.6
	"/>
<line class="st0" x1="315.9" y1="141.3" x2="315.9" y2="240.2"/>
<line class="st0" x1="497.9" y1="141.3" x2="497.9" y2="240.2"/>
<g>
	<polygon class="st1" points="852.2,238.6 541.9,238.6 541.9,141.3 852.2,141.3 852.2,238.6 	"/>
	<polygon points="850.7,237.3 543.4,237.3 543.4,142.7 850.7,142.7 850.7,237.3 	"/>
	<path class="st1" d="M663.8,201.8c0-8-3.9-13.5-10.4-13.5c-7.1,0-10.4,6.7-10.4,13.5c0,8,3.9,13.5,10.4,13.5
		C660.5,215.4,663.8,208.7,663.8,201.8L663.8,201.8L663.8,201.8L663.8,201.8z M668.6,201.7c0,8.8-6.8,15.1-15.2,15.1
		c-8.6,0-15.2-6.4-15.2-14.8c0-8.8,6.8-15.1,15.2-15.1C662,186.9,668.6,193.3,668.6,201.7L668.6,201.7L668.6,201.7L668.6,201.7z"/>
	<path class="st1" d="M756.7,201.8c0-8-3.9-13.5-10.4-13.5c-7.1,0-10.4,6.7-10.4,13.5c0,8,3.9,13.5,10.4,13.5
		C753.4,215.4,756.7,208.7,756.7,201.8L756.7,201.8L756.7,201.8L756.7,201.8z M761.5,201.7c0,8.8-6.8,15.1-15.2,15.1
		c-8.6,0-15.2-6.4-15.2-14.8c0-8.8,6.8-15.1,15.2-15.1C754.9,186.9,761.5,193.3,761.5,201.7L761.5,201.7L761.5,201.7L761.5,201.7z"
		/>
	<path class="st1" d="M779.9,206.7c-1.7-2.4-2.3-3.3-4.4-3.3h-2.3v9.8c0,0.8,0.3,1.2,1.2,1.4l3.3,0.7v1.1h-13v-1.1l3-0.7
		c0.9-0.2,1.2-0.6,1.2-1.4v-22.7c0-0.8-0.3-1.1-1.2-1.4l-3-0.7v-1.1h12.6c2.7,0,4.5,0.2,6,0.8c3.1,1.2,4.9,4.2,4.9,7
		c0,3.5-2.7,6.5-7.1,7.6v0.2c0.9,0.4,1.4,1,4.5,5.1l3.9,5.2c0.6,0.8,1.3,1.3,2.2,1.4l2.9,0.6v1.1h-6.9c-0.8,0-1.2-0.2-1.9-1.2
		L779.9,206.7L779.9,206.7L779.9,206.7z M773.2,202h3.6c5.5,0,6.7-3.5,6.7-6.8c0-2.5-1.1-4.8-3.7-6c-1.4-0.6-2.7-0.6-4.4-0.6h-2.2
		V202L773.2,202L773.2,202z"/>
	<path class="st1" d="M723.2,197.2h1.2v9.7h-1.2l-0.7-2.9c-0.2-1.1-0.9-1.5-1.9-1.5h-7v10.6c0,0.8,0.3,1.2,1.2,1.4l3.3,0.7v1.1h-13
		v-1.1l3-0.7c0.9-0.2,1.2-0.6,1.2-1.4v-22.7c0-0.8-0.3-1.1-1.2-1.4l-3-0.7v-1.1H727v7.3h-1.2l-1.4-4.4c-0.3-1.1-0.8-1.5-1.8-1.5
		h-9.1v12.5h7c1,0,1.5-0.4,1.9-1.4L723.2,197.2L723.2,197.2L723.2,197.2z"/>
	<path class="st1" d="M805.6,188.7v25c0,1.1,0.2,1.3,1.3,1.3h3.5c3.4,0,5.9-0.5,7.6-1.8c3-2.2,4.3-6.1,4.3-11.1
		c0-4.9-1.4-9.7-5.4-12.1c-1.7-1-3.9-1.3-7.2-1.3H805.6L805.6,188.7L805.6,188.7z M797.1,216.3v-1.1l3-0.7c0.9-0.2,1.2-0.6,1.2-1.4
		v-22.7c0-0.8-0.3-1.1-1.2-1.4l-3-0.7v-1.1h13.6c3.7,0,6.4,0.5,8.5,1.4c5.5,2.5,8,7.9,8,13.2c0,5.2-1.9,10-6.8,12.6
		c-2.3,1.2-5.4,1.8-9.5,1.8H797.1L797.1,216.3L797.1,216.3z"/>
	<path class="st1" d="M679.9,215.3v1.1h-10.2v-1.1l2.6-0.6c1-0.2,1.6-0.6,2.3-1.3l8.9-11.1l-8.9-11.8c-0.6-0.8-1.3-1.2-2.2-1.4
		l-2.4-0.6v-1.1h12.7v1.1l-2.7,0.6c-1,0.2-0.7,0.6-0.2,1.2l6.5,9.3h0.2l6.7-9.3c0.5-0.6,0.6-0.9-0.2-1.1l-2.6-0.6v-1.1h10.2v1.1
		l-2.6,0.6c-1,0.2-1.6,0.6-2.3,1.3l-8.4,10.6l9.3,12.3c0.6,0.8,1.3,1.2,2.2,1.4l2.4,0.6v1.1h-12.7v-1.1l2.7-0.6
		c1-0.2,0.8-0.5,0.3-1.1l-7.1-10h-0.2l-7.2,9.9c-0.5,0.6-0.6,0.9,0.2,1.1L679.9,215.3L679.9,215.3L679.9,215.3z"/>
	<path class="st1" d="M649.4,173.7c-0.8,0.8-2,1.3-3.7,1.3c-1.5,0-2.8-0.5-3.7-1.4c-1.3-1.3-1.2-2.8-1.2-4.6v-8.1h1.6v8.7
		c0,1.1,0,2.2,0.8,3c0.6,0.6,1.5,0.9,2.5,0.9c1,0,1.8-0.4,2.3-0.9c0.9-0.9,0.9-2,0.9-4.4v-7.3h1.6v6.8
		C650.7,170.5,650.8,172.4,649.4,173.7L649.4,173.7z"/>
	<polygon class="st1" points="664,174.8 657.4,163.5 657.5,174.8 655.9,174.8 655.9,161.1 657.6,161.1 664.3,172.4 664.2,161.1 
		665.7,161.1 665.7,174.8 664,174.8 	"/>
	<polygon class="st1" points="671.5,174.8 671.5,161.1 673.1,161.1 673.1,174.8 671.5,174.8 	"/>
	<polygon class="st1" points="683.4,174.8 681.5,174.8 676.8,161.1 678.5,161.1 682.5,173.2 686.6,161.1 688.2,161.1 683.4,174.8 	
		"/>
	<polygon class="st1" points="691.9,174.8 691.9,161.1 699.4,161.1 699.4,162.4 693.6,162.4 693.6,167 699.1,167 699.1,168.3 
		693.6,168.3 693.6,173.4 699.6,173.4 699.6,174.8 691.9,174.8 	"/>
	<path class="st1" d="M711.5,174.8l-1.6-3.6c-1-2.2-1.4-2.4-3.4-2.4h-1v6h-1.6v-13.7h3c1.8,0,3.2,0,4.3,1.1c0.7,0.7,1.1,1.6,1.1,2.7
		c0,1-0.3,1.7-0.9,2.4c-0.5,0.5-1.3,1-2.2,1.1c0.5,0,0.9,0.3,1.1,0.5c0.4,0.4,0.6,0.9,1,1.8l1.8,4.1H711.5L711.5,174.8z M710,163.1
		c-0.8-0.8-1.8-0.8-2.9-0.8h-1.5v5.1h0.5c1.4,0,2.9,0.1,3.8-0.9c0.5-0.5,0.7-1.1,0.7-1.8C710.6,164.1,710.3,163.4,710,163.1
		L710,163.1z"/>
	<polygon class="st1" points="729.3,174.8 729.3,161.1 730.9,161.1 730.9,174.8 729.3,174.8 	"/>
	<polygon class="st1" points="740.3,162.4 740.3,174.8 738.7,174.8 738.7,162.4 734.6,162.4 734.6,161.1 744.4,161.1 744.4,162.4 
		740.3,162.4 	"/>
	<polygon class="st1" points="752.3,169.4 752.3,174.8 750.7,174.8 750.7,169.4 746.3,161.1 748.2,161.1 751.6,167.5 754.9,161.1 
		756.7,161.1 752.3,169.4 	"/>
	<path class="st1" d="M772.1,175c-3.6,0-6.2-2.9-6.2-7.1c0-4.2,2.6-7.2,6.3-7.2c3.6,0,6.1,2.9,6.1,7.1
		C778.3,172.1,775.8,175,772.1,175L772.1,175z M772.1,162.2c-2.7,0-4.4,2.3-4.4,5.7c0,3.4,1.9,5.7,4.5,5.7c2.9,0,4.5-2.4,4.5-5.8
		C776.6,164.4,774.7,162.2,772.1,162.2L772.1,162.2z"/>
	<polygon class="st1" points="784.5,162.4 784.5,167 789.8,167 789.8,168.3 784.5,168.3 784.5,174.8 782.9,174.8 782.9,161.1 
		790.1,161.1 790.1,162.4 784.5,162.4 	"/>
	<path class="st1" d="M716.6,164.4c0-2.1,1.7-3.6,4.2-3.6c2.5,0,3.7,1.3,3.8,1.4l-0.8,1c-0.3-0.2-1.4-1-2.9-1
		c-1.8,0-2.7,0.9-2.7,2.2c0,0.6,0.2,1,0.6,1.4c0.5,0.4,1.2,0.7,1.9,1.1c0.9,0.4,2.2,0.9,3,1.8c0.6,0.6,1,1.4,1,2.5
		c0,2.3-1.6,4-4.4,4c-2.4,0-4-1.3-4.1-1.5l0.8-1.1c0.4,0.3,1.9,1.2,3.3,1.2c2.1,0,2.8-1.1,2.8-2.5c0-0.6-0.3-1.1-0.7-1.6
		c-0.6-0.6-1.6-1-2.5-1.5c-0.9-0.4-1.8-0.9-2.4-1.5C717,166.2,716.6,165.5,716.6,164.4L716.6,164.4z"/>
	<path class="st1" d="M590.4,179.7c0-1.2-0.4-2.2-1.3-2.7c-0.6-0.3-1.3-0.4-2.2-0.4l-6.8,0v13.7h7.4c1.7,0,2.7,0.4,2.8,1.9h0.2
		L590.4,179.7L590.4,179.7z"/>
	<path class="st1" d="M591.3,179.7c0-1.2,0.4-2.2,1.3-2.7c0.6-0.3,1.3-0.4,2.2-0.4l6.8,0v13.7h-7.4c-1.7,0-2.7,0.4-2.8,1.9h-0.2
		L591.3,179.7L591.3,179.7z"/>
	<path class="st1" d="M603.1,177.5c0,0,0,13.6,0,14.4c-0.9,0-10.5,0-10.5,0l-0.1,0.3c-0.2,0.5-0.5,0.9-1.7,0.9
		c-1.1,0-1.5-0.4-1.7-0.9l-0.1-0.3c0,0-9.6,0-10.4,0c0-0.9,0-14.4,0-14.4h-0.9v0.4l-0.9-0.3c-0.1-0.4-0.4-0.6-0.8-0.6
		c-0.5,0-0.9,0.4-0.9,0.9c0,0.5,0.4,0.9,0.9,0.9c0.2,0,0.4-0.1,0.5-0.2l1.2,0.4v1.2l-0.9-0.2c-0.1-0.3-0.4-0.5-0.8-0.5
		c-0.5,0-0.9,0.4-0.9,0.9c0,0.5,0.4,0.9,0.9,0.9c0.2,0,0.5-0.1,0.6-0.3l1.1,0.2v1.2l-0.9,0c-0.2-0.3-0.4-0.4-0.7-0.4
		c-0.5,0-0.9,0.4-0.9,0.9c0,0.5,0.4,0.9,0.9,0.9c0.3,0,0.5-0.1,0.7-0.4l1,0v1.3l-0.9,0c-0.2-0.2-0.4-0.4-0.7-0.4
		c-0.5,0-0.9,0.4-0.9,0.9c0,0.5,0.4,0.9,0.9,0.9c0.3,0,0.6-0.2,0.7-0.4l0.9,0v1.2l-1,0.2c-0.2-0.2-0.4-0.3-0.6-0.3
		c-0.5,0-0.9,0.4-0.9,0.9s0.4,0.9,0.9,0.9c0.4,0,0.7-0.2,0.8-0.5l0.9-0.2v1.2l-1.1,0.3c-0.1-0.1-0.3-0.2-0.5-0.2
		c-0.5,0-0.9,0.4-0.9,0.9c0,0.5,0.4,0.9,0.9,0.9c0.4,0,0.7-0.3,0.8-0.6l0.9-0.3v1.1l-1.3,0.5c-0.1-0.1-0.3-0.1-0.5-0.1
		c-0.5,0-0.9,0.4-0.9,0.9c0,0.5,0.4,0.9,0.9,0.9c0.4,0,0.8-0.3,0.8-0.7l0.9-0.4v1c0,0,10.3,0,10.8,0c0.4,0.8,1.2,1.2,2.4,1.2
		c1.2,0,1.9-0.4,2.4-1.2c0.5,0,10.8,0,10.8,0v-15.4H603.1L603.1,177.5z"/>
	<path class="st1" d="M583.8,172.7c-2.2,0-4,0.3-4,0.8c0,0.4,1.8,0.8,4,0.8c2.2,0,4-0.3,4-0.8C587.7,173,585.9,172.7,583.8,172.7
		L583.8,172.7z"/>
	<path class="st1" d="M589.2,168l-2.3,1.6l0,0.2l0.5,0.2c0.1,0.1,0.1,0.1,0.1,0.2l-1.4,1.2l-0.1,0l-1-1.5c-0.1-0.1,0-0.2,0.1-0.2
		l0.7-0.1v-0.2l-1.8-2.5h-0.3l-1.8,2.5v0.2l0.7,0.1c0.1,0,0.1,0.1,0.1,0.2l-1,1.5l-0.1,0l-1.3-1.2c-0.1-0.1-0.1-0.1,0.1-0.2l0.5-0.2
		l0-0.2l-2.4-1.6l-0.2,0.1l1.4,4.3c0.7-0.3,2.3-0.5,4.2-0.6c1.9,0,3.5,0.2,4.2,0.6l1.4-4.3L589.2,168L589.2,168z"/>
	<path class="st1" d="M590.8,201.3c-2.2,0-4,0.3-4,0.8c0,0.4,1.8,0.8,4,0.8c2.2,0,4-0.3,4-0.8C594.8,201.7,593,201.3,590.8,201.3
		L590.8,201.3z"/>
	<path class="st1" d="M596.3,196.6l-2.3,1.6l0,0.2l0.5,0.2c0.1,0.1,0.1,0.1,0.1,0.2l-1.4,1.2l-0.1,0l-1-1.5c-0.1-0.1,0-0.2,0.1-0.2
		l0.7-0.1V198l-1.8-2.5h-0.3l-1.8,2.5v0.2l0.7,0.1c0.1,0,0.1,0.1,0.1,0.2l-1,1.5l-0.1,0l-1.3-1.2c-0.1-0.1-0.1-0.1,0.1-0.2l0.5-0.2
		l0-0.2l-2.4-1.6l-0.2,0.1l1.4,4.3c0.7-0.3,2.3-0.5,4.2-0.6c1.9,0,3.5,0.2,4.2,0.6l1.4-4.3L596.3,196.6L596.3,196.6z"/>
	<path class="st1" d="M597.9,172.7c-2.2,0-4,0.3-4,0.8c0,0.4,1.8,0.8,4,0.8c2.2,0,4-0.3,4-0.8C601.9,173,600.1,172.7,597.9,172.7
		L597.9,172.7z"/>
	<path class="st1" d="M603.4,168l-2.3,1.6l0,0.2l0.5,0.2c0.1,0.1,0.1,0.1,0.1,0.2l-1.4,1.2l-0.1,0l-1-1.5c-0.1-0.1,0-0.2,0.1-0.2
		l0.7-0.1v-0.2l-1.8-2.5h-0.3l-1.8,2.5v0.2l0.7,0.1c0.1,0,0.1,0.1,0.1,0.2l-1,1.5l-0.1,0l-1.3-1.2c-0.1-0.1-0.1-0.1,0.1-0.2l0.5-0.2
		l0-0.2l-2.4-1.6l-0.2,0.1l1.4,4.3c0.7-0.3,2.3-0.5,4.2-0.6c1.9,0,3.5,0.2,4.2,0.6l1.4-4.3L603.4,168L603.4,168z"/>
	<path class="st0" d="M581.7,180.2c0,0.3,0.1,0.3,0.2,0.3c0.3,0,0.5-0.3,0.5-0.8c0-0.6-0.3-0.8-0.6-0.8c-0.1,0-0.1,0-0.1,0
		c0,0,0,0.1,0,0.2V180.2L581.7,180.2z M581.8,178.7c0.4,0,0.7,0.1,0.9,0.3c0.1,0.1,0.3,0.4,0.3,0.6c0,0.8-0.6,1.1-1.3,1.1h-0.8v-0.1
		c0.2,0,0.2,0,0.2-0.4v-1c0-0.3,0-0.3-0.2-0.4v-0.1H581.8L581.8,178.7z"/>
	<path class="st0" d="M583.8,179.6c0,0.5,0.2,0.9,0.5,0.9c0.3,0,0.4-0.2,0.4-0.8c0-0.6-0.2-0.9-0.5-0.9
		C584,178.8,583.8,179.1,583.8,179.6L583.8,179.6z M585.2,179.6c0,0.6-0.4,1-1,1c-0.6,0-1-0.4-1-1c0-0.5,0.3-1.1,1-1.1
		C584.8,178.6,585.2,179,585.2,179.6L585.2,179.6z"/>
	<path class="st0" d="M587.9,178.7v0.1c-0.2,0-0.2,0-0.2,0.3l0,1c0,0.3,0,0.3,0.2,0.4v0.1H587v-0.1c0.2,0,0.2,0,0.2-0.4l0-1.1h0
		l-0.6,1.5h-0.2l-0.6-1.4h0l0,0.7c0,0.3,0,0.4,0,0.5c0,0.1,0.1,0.1,0.3,0.2v0.1h-0.7v-0.1c0.1,0,0.2,0,0.2-0.2c0-0.1,0-0.3,0-0.5
		l0-0.6c0-0.4,0-0.4-0.2-0.4v-0.1h0.7l0.5,1.2l0.5-1.2H587.9L587.9,178.7z"/>
	<path class="st0" d="M588.9,180.2c0,0.3,0,0.3,0.2,0.4v0.1h-1v-0.1c0.2,0,0.2,0,0.2-0.4v-1c0-0.3,0-0.3-0.2-0.4v-0.1h1v0.1
		c-0.2,0-0.2,0-0.2,0.4V180.2L588.9,180.2z"/>
	<path class="st0" d="M584,184.3h-0.3l-1.1-1.4h0v0.6c0,0.3,0,0.5,0,0.6c0,0.1,0.1,0.1,0.3,0.2v0.1h-0.7v-0.1c0.1,0,0.2,0,0.2-0.2
		c0-0.1,0-0.3,0-0.6v-0.6c0-0.2,0-0.3-0.1-0.3c0-0.1-0.1-0.1-0.2-0.1v-0.1h0.7l1,1.3h0v-0.4c0-0.3,0-0.5,0-0.6
		c0-0.1-0.1-0.1-0.3-0.2v-0.1h0.8v0.1c-0.1,0-0.2,0-0.2,0.2c0,0.1,0,0.3,0,0.6V184.3L584,184.3z"/>
	<path class="st0" d="M585.2,184.3c-0.2-0.5-0.5-1.3-0.6-1.6c-0.1-0.3-0.2-0.3-0.3-0.3v-0.1h1v0.1l-0.1,0c-0.1,0-0.1,0-0.1,0.1
		c0.1,0.2,0.3,0.8,0.4,1.1c0.1-0.3,0.3-0.8,0.3-1c0.1-0.2,0-0.2-0.1-0.2l-0.1,0v-0.1h0.7v0.1c-0.2,0-0.2,0-0.3,0.3
		c0,0-0.4,0.9-0.6,1.6H585.2L585.2,184.3z"/>
	<path class="st0" d="M586.6,183.6c0.1,0.2,0.2,0.5,0.5,0.5c0.2,0,0.3-0.1,0.3-0.3c0-0.2-0.1-0.3-0.3-0.4l0,0
		c-0.2-0.1-0.5-0.3-0.5-0.6c0-0.3,0.2-0.6,0.7-0.6c0.1,0,0.2,0,0.3,0c0.1,0,0.1,0,0.2,0c0,0.1,0,0.3,0.1,0.5l-0.1,0
		c-0.1-0.2-0.2-0.4-0.4-0.4c-0.2,0-0.3,0.1-0.3,0.3c0,0.2,0.1,0.2,0.3,0.3l0.1,0c0.3,0.1,0.5,0.3,0.5,0.6c0,0.4-0.3,0.6-0.8,0.6
		c-0.1,0-0.2,0-0.3-0.1c-0.1,0-0.2-0.1-0.2-0.1c0-0.1-0.1-0.3-0.1-0.5L586.6,183.6L586.6,183.6z"/>
	<path class="st0" d="M582.7,187.4c0,0.3,0,0.3,0.2,0.4v0.1h-1v-0.1c0.2,0,0.2,0,0.2-0.4v-1c0-0.3,0-0.3-0.2-0.4v-0.1h1v0.1
		c-0.2,0-0.2,0-0.2,0.4V187.4L582.7,187.4z"/>
	<path class="st0" d="M583.9,187.4c0,0.2,0,0.2,0.1,0.3c0,0,0.1,0,0.2,0c0.1,0,0.2,0,0.3-0.1c0-0.1,0.1-0.1,0.1-0.3l0.1,0
		c0,0.1-0.1,0.4-0.1,0.5h-1.5v-0.1c0.2,0,0.3,0,0.3-0.4v-1c0-0.3,0-0.3-0.2-0.4v-0.1h1v0.1c-0.2,0-0.2,0-0.2,0.4V187.4L583.9,187.4z
		"/>
	<path class="st0" d="M585.6,187.4c0,0.2,0,0.2,0.1,0.3c0,0,0.1,0,0.2,0c0.1,0,0.2,0,0.3-0.1c0-0.1,0.1-0.1,0.1-0.3l0.1,0
		c0,0.1-0.1,0.4-0.1,0.5h-1.5v-0.1c0.2,0,0.3,0,0.3-0.4v-1c0-0.3,0-0.3-0.2-0.4v-0.1h1v0.1c-0.2,0-0.2,0-0.2,0.4V187.4L585.6,187.4z
		"/>
	<path class="st0" d="M587,187.9c-0.2-0.5-0.5-1.3-0.6-1.6c-0.1-0.3-0.2-0.3-0.3-0.3v-0.1h1v0.1l-0.1,0c-0.1,0-0.1,0-0.1,0.1
		c0.1,0.2,0.3,0.8,0.4,1.1c0.1-0.3,0.3-0.8,0.3-1c0.1-0.2,0-0.2-0.1-0.2l-0.1,0v-0.1h0.7v0.1c-0.2,0-0.2,0-0.3,0.3
		c0,0-0.4,0.9-0.6,1.6H587L587,187.9z"/>
	<path class="st0" d="M595.1,178.7v0.1c-0.2,0-0.2,0-0.2,0.3l0,1c0,0.3,0,0.3,0.2,0.4v0.1h-0.9v-0.1c0.2,0,0.2,0,0.2-0.4l0-1.1h0
		l-0.6,1.5h-0.2l-0.6-1.4h0l0,0.7c0,0.3,0,0.4,0,0.5c0,0.1,0.1,0.1,0.3,0.2v0.1h-0.7v-0.1c0.1,0,0.2,0,0.2-0.2c0-0.1,0-0.3,0-0.5
		l0-0.6c0-0.4,0-0.4-0.2-0.4v-0.1h0.7l0.5,1.2l0.5-1.2H595.1L595.1,178.7z"/>
	<path class="st0" d="M596.1,180.2c0,0.3,0,0.3,0.2,0.4v0.1h-1v-0.1c0.2,0,0.2,0,0.2-0.4v-1c0-0.3,0-0.3-0.2-0.4v-0.1h1v0.1
		c-0.2,0-0.2,0-0.2,0.4V180.2L596.1,180.2z"/>
	<path class="st0" d="M598.3,180.7h-0.3l-1.1-1.4h0v0.6c0,0.3,0,0.5,0,0.6c0,0.1,0.1,0.1,0.3,0.2v0.1h-0.8v-0.1c0.1,0,0.2,0,0.2-0.2
		c0-0.1,0-0.3,0-0.6v-0.6c0-0.2,0-0.3-0.1-0.3c0-0.1-0.1-0.1-0.2-0.1v-0.1h0.7l1,1.3h0v-0.4c0-0.3,0-0.5,0-0.6
		c0-0.1-0.1-0.1-0.3-0.2v-0.1h0.8v0.1c-0.2,0-0.2,0-0.2,0.2c0,0.1,0,0.3,0,0.6V180.7L598.3,180.7z"/>
	<path class="st0" d="M599.2,179.9h0.4l-0.2-0.6h0L599.2,179.9L599.2,179.9z M599.6,180.5L599.6,180.5c0.2,0,0.2-0.1,0.2-0.2
		l-0.1-0.3h-0.5l-0.1,0.3c0,0.1,0,0.2,0.1,0.2l0.1,0v0.1h-0.7v-0.1c0.2,0,0.2,0,0.3-0.3l0.6-1.6l0.2,0l0.2,0.6
		c0.1,0.4,0.3,0.7,0.4,1c0.1,0.3,0.2,0.3,0.3,0.3v0.1h-0.9V180.5L599.6,180.5z"/>
	<path class="st0" d="M595.1,183.8c0,0.3,0,0.3,0.3,0.4v0.1h-1.1v-0.1c0.2,0,0.3,0,0.3-0.4v-1.3h-0.1c-0.2,0-0.3,0-0.3,0.1
		c0,0-0.1,0.1-0.1,0.3h-0.1c0-0.3,0-0.5,0-0.6h0.1c0,0.1,0.1,0.1,0.2,0.1h1.2c0.1,0,0.1,0,0.1-0.1h0.1c0,0.1,0,0.4,0,0.6l-0.1,0
		c0-0.2-0.1-0.3-0.1-0.3c-0.1-0.1-0.2-0.1-0.3-0.1h-0.1V183.8L595.1,183.8z"/>
	<path class="st0" d="M596.6,183.8c0,0.3,0,0.3,0.2,0.4v0.1h-1v-0.1c0.2,0,0.2,0,0.2-0.4v-1c0-0.3,0-0.3-0.2-0.4v-0.1h1v0.1
		c-0.2,0-0.2,0-0.2,0.4V183.8L596.6,183.8z"/>
	<path class="st0" d="M597.7,183.2c0,0.5,0.2,0.9,0.5,0.9c0.3,0,0.4-0.3,0.4-0.8c0-0.6-0.2-0.9-0.5-0.9
		C597.9,182.4,597.7,182.7,597.7,183.2L597.7,183.2z M599.1,183.3c0,0.6-0.4,1-1,1c-0.6,0-1-0.4-1-1c0-0.5,0.3-1.1,1-1.1
		C598.7,182.3,599.1,182.7,599.1,183.3L599.1,183.3z"/>
	<path class="st0" d="M596,185.9v0.1c-0.2,0-0.2,0-0.2,0.3l0,1c0,0.3,0,0.3,0.2,0.4v0.1H595v-0.1c0.2,0,0.2,0,0.2-0.4l0-1.1h0
		l-0.6,1.5h-0.2l-0.6-1.4h0l0,0.7c0,0.3,0,0.4,0,0.5c0,0.1,0.1,0.1,0.3,0.2v0.1h-0.7v-0.1c0.1,0,0.2,0,0.2-0.2c0-0.1,0-0.3,0-0.5
		l0-0.6c0-0.4,0-0.4-0.2-0.4v-0.1h0.7l0.5,1.2l0.5-1.2H596L596,185.9z"/>
	<path class="st0" d="M596.4,186.4c0-0.3,0-0.3-0.2-0.4v-0.1h1.4c0,0.1,0,0.3,0,0.5l-0.1,0c0-0.1-0.1-0.2-0.1-0.3
		c0-0.1-0.1-0.1-0.3-0.1h-0.1c-0.1,0-0.1,0-0.1,0.1v0.6h0.1c0.3,0,0.3,0,0.3-0.2h0.1v0.7h-0.1c0-0.3,0-0.3-0.3-0.3h-0.1v0.5
		c0,0.2,0,0.2,0.1,0.3c0,0,0.1,0,0.2,0c0.1,0,0.3,0,0.3-0.1c0.1-0.1,0.1-0.2,0.1-0.3l0.1,0c0,0.1-0.1,0.5-0.1,0.5h-1.5v-0.1
		c0.2,0,0.3,0,0.3-0.4V186.4L596.4,186.4z"/>
	<path class="st0" d="M598.5,187.1h0.4l-0.2-0.6h0L598.5,187.1L598.5,187.1z M598.9,187.8L598.9,187.8c0.2,0,0.2-0.1,0.2-0.2
		l-0.1-0.3h-0.5l-0.1,0.3c0,0.1,0,0.2,0.1,0.2l0.1,0v0.1h-0.7v-0.1c0.2,0,0.2,0,0.3-0.3l0.6-1.6l0.2,0l0.2,0.6
		c0.1,0.4,0.3,0.7,0.4,1c0.1,0.3,0.2,0.3,0.3,0.3v0.1h-0.9V187.8L598.9,187.8z"/>
	<path class="st1" d="M588.1,212.1c0,0.4-0.4,0.8-0.8,0.8c-0.4,0-0.8-0.4-0.8-0.8c0-0.4,0.4-0.8,0.8-0.8
		C587.8,211.3,588.1,211.7,588.1,212.1L588.1,212.1z"/>
	<path class="st1" d="M596.1,213.4c0,0.4-0.4,0.8-0.8,0.8c-0.4,0-0.8-0.4-0.8-0.8c0-0.4,0.4-0.8,0.8-0.8
		C595.8,212.6,596.1,213,596.1,213.4L596.1,213.4z"/>
	<polygon class="st1" points="565.5,169.1 565.5,169.1 565.5,169.1 	"/>
	<polygon class="st1" points="598.6,154.9 598.6,154.9 598.6,154.9 	"/>
	<polygon class="st1" points="611.3,170.6 611.3,170.6 611.3,170.6 	"/>
	<polygon class="st1" points="617.4,196.2 617.4,196.2 617.4,196.2 	"/>
	<path class="st1" d="M591.6,156.5c0,0.4-0.4,0.8-0.8,0.8c-0.4,0-0.8-0.4-0.8-0.8c0-0.4,0.4-0.8,0.8-0.8
		C591.3,155.7,591.6,156,591.6,156.5L591.6,156.5z"/>
	<path class="st1" d="M610.4,163.9c0,0.4-0.4,0.8-0.8,0.8c-0.4,0-0.8-0.4-0.8-0.8c0-0.4,0.4-0.8,0.8-0.8
		C610,163.1,610.4,163.4,610.4,163.9L610.4,163.9z"/>
	<path class="st1" d="M570.8,197.7c0.3,0.4,0.5,0.9,0.5,1.4c0,0.6-0.2,1-1.2,1.7l-2.8,2l-0.5-0.8c0,0,2.9-2.1,3-2.1
		c0.5-0.3,0.7-0.6,0.7-1c0-0.3-0.1-0.5-0.3-0.8c-0.3-0.4-0.7-0.5-1-0.5c-0.3,0-0.6,0.2-1.2,0.6l-2.7,1.8l-0.5-0.7l2.5-1.7
		c0.7-0.5,1.3-0.8,1.8-0.8C569.9,196.7,570.5,197.2,570.8,197.7L570.8,197.7z"/>
	<polygon class="st1" points="561.8,192.1 567.2,190.2 567.5,191 564.4,194.8 568.3,193.3 568.6,194.1 563.2,196.1 562.9,195.3 
		566,191.5 562,192.9 561.8,192.1 	"/>
	<polygon class="st1" points="560.9,187.8 566.6,187 566.7,187.9 561.1,188.7 560.9,187.8 	"/>
	<polygon class="st1" points="560.8,181 560.8,180 566.5,182.3 566.4,183.3 560.6,185 560.6,184 565.3,182.7 560.8,181 	"/>
	<path class="st1" d="M564.9,169.9c0.3-0.6,0.6-0.8,0.9-0.8c0.1,0,0.3,0,0.5,0.1c0.2,0.1,0.4,0.3,0.4,0.5c0,0.1,0,0.2,0,0.2
		c0,0.3-0.2,0.7-0.4,1l-0.1,0.2l-1.6-0.9L564.9,169.9L564.9,169.9z M565.9,168.2c-0.8,0-1.2,0.5-1.7,1.4l-0.7,1.2l5,2.7l0.4-0.8
		l-2.1-1.1l0.1-0.2c0.4-0.6,0.5-0.7,1.4-0.7l1.6,0.1l0.5-0.8l-1.9-0.2c-0.4,0-0.7-0.1-0.9,0c-0.1,0-0.2,0.1-0.3,0.1
		c0-0.1,0.1-0.2,0.1-0.3c0-0.2,0-0.3-0.1-0.5c-0.1-0.3-0.3-0.6-0.7-0.8C566.5,168.2,566.2,168.2,565.9,168.2L565.9,168.2z"/>
	<polygon class="st1" points="572.2,160.1 572.9,159.5 576.4,164.1 575.7,164.6 572.2,160.1 	"/>
	<polygon class="st1" points="575.4,157.8 579.1,155.9 579.4,156.6 578,157.4 580.3,161.7 579.5,162.2 577.2,157.8 575.7,158.5 
		575.4,157.8 	"/>
	<polygon class="st1" points="584.6,154.2 585.6,153.9 584.8,157.7 585.4,159.9 584.5,160.2 583.9,158 581.2,155.2 582.2,154.9 
		584.1,156.9 584.6,154.2 	"/>
	<polygon class="st1" points="602.1,162 605,157.1 607.7,158.7 607.3,159.4 605.4,158.2 604.6,159.6 606.4,160.7 606,161.3 
		604.2,160.2 602.9,162.5 602.1,162 	"/>
	<polygon class="st1" points="616.8,174.8 618.9,172.3 619.2,173.3 617.6,175 619.9,175.5 620.3,176.5 617.1,175.7 614.9,178.4 
		614.5,177.4 616.2,175.5 613.7,174.9 613.4,173.9 616.8,174.8 	"/>
	<polygon class="st1" points="615.1,180.4 620.9,179.9 621.1,183.1 620.3,183.1 620.2,180.9 618.6,181 618.7,183.1 618,183.2 
		617.8,181.1 615.2,181.3 615.1,180.4 	"/>
	<path class="st1" d="M618.1,189.9c-1.1,0-2.4-0.6-2.4-1.7c0-0.4,0.1-1,0.6-1.3c0.3-0.2,0.8-0.4,1.3-0.4c0.6,0,1.6,0.2,2.1,0.9
		c0.2,0.3,0.3,0.6,0.3,0.9c0,0.4-0.2,1-0.6,1.3C619.1,189.7,618.6,189.9,618.1,189.9L618.1,189.9z M617.7,185.5
		c-0.7,0-1.3,0.2-1.8,0.5c-0.9,0.6-1,1.5-1,2.1c0,1.9,1.8,2.7,3.2,2.7c0.7,0,1.3-0.2,1.7-0.5c1-0.7,1-1.7,1-2.1
		C620.8,186.5,619.3,185.5,617.7,185.5L617.7,185.5z"/>
	<path class="st1" d="M613.5,171.1c-0.5,0-1-0.2-1.3-0.7c-0.2-0.3-0.2-0.5-0.2-0.8c0-0.6,0.4-1.3,1.2-1.8c0.5-0.3,1-0.5,1.4-0.5
		c0.6,0,1,0.2,1.3,0.7c0.2,0.3,0.3,0.6,0.3,0.9c0,0.6-0.4,1.3-1.1,1.7C614.4,170.9,613.9,171.1,613.5,171.1L613.5,171.1z
		 M614.3,166.4c-0.6,0-1.2,0.2-1.8,0.6c-1.1,0.7-1.5,1.7-1.5,2.4c0,0.5,0.1,0.9,0.4,1.4c0.6,1,1.5,1.2,2.1,1.2
		c0.6,0,1.2-0.2,1.8-0.6c0.7-0.4,1.5-1.3,1.5-2.4c0-0.5-0.1-0.9-0.4-1.4C616,166.8,615.2,166.4,614.3,166.4L614.3,166.4z"/>
	<path class="st1" d="M598.4,159.7c-0.4,0-1-0.2-1.3-0.8c-0.2-0.3-0.2-0.7-0.2-1c0-1,0.7-2.5,1.9-2.5c0.7,0,1.6,0.5,1.6,1.8
		C600.4,158.1,599.8,159.7,598.4,159.7L598.4,159.7z M598.7,154.6c-1.2,0-2.2,0.8-2.7,2.2c-0.1,0.3-0.2,0.6-0.2,0.9
		c0,0.6,0.1,1,0.3,1.5c0.5,1,1.5,1.3,2.2,1.3c0.4,0,0.8-0.1,1.2-0.3c1-0.5,1.6-1.8,1.6-2.9c0-0.5-0.1-1-0.3-1.4
		C600.5,155.1,599.6,154.6,598.7,154.6L598.7,154.6z"/>
	<polygon class="st1" points="567,175.4 567.8,175.6 566.9,178.8 561.4,177.2 562.3,174.1 563.1,174.3 562.4,176.6 563.9,177 
		564.5,174.9 565.2,175.1 564.6,177.2 566.4,177.7 567,175.4 	"/>
	<path class="st1" d="M568.5,163.4c0.8-0.9,1.6-0.8,1.6-0.8l0.1,0.8c0,0-0.6,0-1.1,0.6c-0.2,0.2-0.3,0.5-0.3,0.7
		c0,0.2,0.1,0.3,0.2,0.5c0.4,0.4,1.1,0,1.5-0.2c0.3-0.1,0.8-0.3,1.3-0.3c0.3,0,0.7,0.1,1,0.4c0.4,0.3,0.6,0.8,0.6,1.2
		c0,0.5-0.2,0.9-0.6,1.3c-0.7,0.8-1.7,0.9-1.7,0.9l-0.2-0.8c0.6-0.1,1-0.4,1.3-0.7c0.2-0.2,0.3-0.5,0.3-0.7c0-0.2-0.1-0.4-0.3-0.6
		c-0.1-0.1-0.3-0.2-0.5-0.2c-0.4,0-0.8,0.2-1.2,0.4c-0.7,0.3-1.4,0.5-2.1-0.1c-0.3-0.3-0.5-0.7-0.5-1.1
		C567.9,164.3,568.1,163.9,568.5,163.4L568.5,163.4z"/>
	<path class="st1" d="M617,196.3c-0.3,0-0.7-0.1-0.9-0.6c0-0.1-0.1-0.2-0.1-0.3c0-0.3,0.2-0.6,0.3-1l0.1-0.2l1.7,0.7l-0.2,0.4
		C617.7,196.1,617.4,196.3,617,196.3L617,196.3z M613.6,192.9l2.2,1l-0.1,0.2c-0.3,0.7-0.4,0.8-1.3,0.8l-1.6,0l-0.4,0.9l1.9,0
		c0.4,0,0.7,0,0.9-0.1c0.1,0,0.2-0.1,0.2-0.1c0,0,0,0.1,0,0.1c0,0.2,0,0.4,0.1,0.6c0.3,0.6,1,0.9,1.5,0.9c0.9,0,1.3-0.5,1.7-1.5
		c0,0,0.5-1.2,0.5-1.2l-5.2-2.3L613.6,192.9L613.6,192.9z"/>
	<path class="st1" d="M612.7,202.6c-0.5,0-0.9-0.2-1.3-0.5c-0.5-0.4-0.9-0.9-0.9-1.6c0-0.5,0.3-1,0.7-1.5l0.4-0.5l3.3,2.6l-0.3,0.3
		C613.9,202.2,613.5,202.6,612.7,202.6L612.7,202.6z M610.6,198.3c-0.6,0.7-1,1.4-1,2.3c0,0.7,0.3,1.6,1.2,2.2
		c0.6,0.4,1.2,0.7,1.8,0.7c0.8,0,1.4-0.2,2.4-1.5l0.9-1.1l-4.5-3.6L610.6,198.3L610.6,198.3z"/>
	<path class="st1" d="M610.1,209.2c-5.3,1.9-10.3,1.8-14.5,0.8c0.1-1.9,0.9-3.9,2.1-4.3c9.3-2.9,16.2-11.6,16.2-21.9
		c0-12.6-10.3-22.9-23-22.9c-12.7,0-23,10.3-23,22.9c0,7,3.3,13.7,8.8,18c-1.3,0.6-2.4,1.5-3.2,2.7c-0.4-0.3-0.8-0.6-1.2-0.9
		l-0.2,0.2c0.3,0.3,0.6,0.7,1.1,1.1c-0.7,1.1-1.1,2.5-1.1,3.9c0,0.2,0,0.4,0,0.7c-8.2-6-13.1-15.5-13.1-25.7
		c0-17.6,14.3-31.8,31.8-31.8c17.6,0,31.8,14.3,31.8,31.8C622.7,193.9,618.1,203.1,610.1,209.2L610.1,209.2z M591.6,216.7
		c-4.4,0-9.9-1.5-13.7-3.7c-1.1-0.7-2.5-1.9-2.5-4.1c0-0.6,0.1-1.1,0.3-1.6c1.4,1.2,2.9,2.3,3.8,2.8c0.2,0.1,0.3,0.2,0.6,0.2
		c0.6,0,1.1-0.5,1.1-1.1c0-0.4-0.2-0.8-0.6-1c-0.8-0.3-2.4-1-4.2-1.9c0.8-1.1,2.1-1.8,3.5-1.8c0.7,0,1.3,0.1,1.9,0.4l1.2,0.7
		c3.8,2.3,13.7,8.3,25.6,5C604.1,214.7,598.5,216.7,591.6,216.7L591.6,216.7z M595.4,219.4c-1.2,0-2.2,0.9-2.2,2.2
		c0,1.3,1,2.2,2.2,2.2c0.2,0,0.4,0,0.5-0.1c-0.3,1.8-2.4,3.9-5.1,4.8c-2.7-0.9-4.8-3-5.1-4.8c0.2,0,0.3,0.1,0.5,0.1
		c1.3,0,2.2-0.9,2.2-2.2c0-1.2-0.9-2.1-2.2-2.2c0.4-0.7,0.7-1.4,1-2.2c1.5,0.3,3,0.4,4.4,0.4c1.1,0,2.2-0.1,3.3-0.2
		c0.1,0.6,0.4,1.3,0.6,1.9C595.5,219.4,595.4,219.4,595.4,219.4L595.4,219.4z M579.8,202.1c2.3,0,4.4,1.2,5.6,3
		c-1.1-0.3-2.2-0.6-3.2-1.1l0,0l0,0c-0.7-0.3-1.5-0.5-2.3-0.5c-1.8,0-3.4,0.9-4.4,2.2c-0.4-0.2-0.8-0.5-1.2-0.7
		C575.5,203.3,577.5,202.1,579.8,202.1L579.8,202.1z M588.8,206.7c-0.3,0.2-0.5,0.5-0.7,0.7c-0.8-0.4-1.9-0.9-2.6-1.3
		C586.5,206.3,587.8,206.6,588.8,206.7L588.8,206.7z M595.7,206.2c-0.7,0.9-1.1,2.2-1.2,3.6c-2.1-0.5-4-1.3-5.6-2
		c0.3-0.6,1.2-1,1.9-1C592.5,206.7,594.2,206.6,595.7,206.2L595.7,206.2z M590.9,205.8c-1.4,0-2.8-0.1-4.1-0.4
		c-1.3-2.6-4-4.2-6.9-4.2c-0.7,0-1.4,0.1-2.1,0.3c-5.6-4.1-8.9-10.7-8.9-17.7c0-12.1,9.9-22,22-22c12.1,0,22,9.9,22,22
		C612.8,196,603,205.8,590.9,205.8L590.9,205.8z M579.8,215.7c-3.7,0-6.8-3-6.8-6.8c0-1.2,0.3-2.3,0.8-3.2c0.3,0.3,0.7,0.6,1.1,1
		c-0.3,0.7-0.5,1.5-0.5,2.3c0,2,1,3.7,3,4.9c1.1,0.7,2.4,1.2,3.7,1.8C580.7,215.6,580.3,215.7,579.8,215.7L579.8,215.7z
		 M623.7,183.8c0-18.1-14.7-32.8-32.8-32.8c-18.1,0-32.8,14.7-32.8,32.8c0,10.8,5.4,20.9,14.3,27.1c0.9,3.3,3.9,5.7,7.5,5.7
		c1,0,1.9-0.2,2.8-0.5c1.2,0.4,2.4,0.7,3.7,1c-0.3,1-0.9,1.9-1.3,2.8c0,0,0,0,0,0c0,0,0,0,0,0l0.7,0.7c0.2-0.1,0.4-0.2,0.6-0.2
		c0.7,0,1.2,0.5,1.2,1.2c0,0.7-0.5,1.2-1.2,1.2c-0.6,0-1.1-0.4-1.4-0.8c0,0-0.2,0.6-0.2,1.3c0,2.4,2.6,5,6.1,6.2
		c3.6-1.1,6.1-3.8,6.1-6.2c0-0.8-0.2-1.3-0.2-1.3c-0.3,0.3-0.7,0.8-1.4,0.8c-0.7,0-1.2-0.5-1.2-1.2c0-0.7,0.6-1.2,1.2-1.2
		c0.2,0,0.5,0.1,0.6,0.2l0.7-0.7c0,0,0,0,0,0c-0.4-0.9-0.6-1.7-0.8-2.5c5.9-0.8,10.9-3.3,14.8-7.5l0,0
		C618.9,203.7,623.7,194.2,623.7,183.8L623.7,183.8z"/>
</g>
<g>
	<path d="M-322.6,1569.8l0,1h-0.1c-0.1-0.6-0.3-0.7-1.1-0.7v2.8c0,0.3,0.2,0.5,0.5,0.5v0.1h-1.5v-0.1c0.3,0,0.5-0.1,0.5-0.5v-2.8
		c-0.8,0-1,0.1-1.1,0.7h-0.1l0-1H-322.6L-322.6,1569.8z"/>
	<path d="M-319.7,1570v-0.1h1.1v0.1c-0.2,0-0.4,0.2-0.5,0.4c-0.1,0.2-0.9,1.5-0.9,1.5v1.1c0,0.4,0.1,0.5,0.5,0.5v0.1h-1.6v-0.1
		c0.4,0,0.5-0.1,0.5-0.5v-1c0,0-0.9-1.4-1-1.6c-0.1-0.2-0.3-0.4-0.5-0.4v-0.1h1.5v0.1c-0.2,0-0.3,0.1-0.3,0.2c0,0.1,0,0.1,0.1,0.2
		c0,0,0.7,1.2,0.7,1.2s0.7-1.2,0.7-1.3c0,0,0-0.1,0-0.1C-319.4,1570.1-319.5,1570-319.7,1570L-319.7,1570z"/>
	<path d="M-328.5,1569.7l0.1,1.2h-0.1c-0.2-0.6-0.5-1-0.9-1c-0.3,0-0.5,0.2-0.5,0.5c0,0.3,0.2,0.5,0.5,0.7c0.3,0.2,0.5,0.3,0.6,0.4
		c0.3,0.2,0.5,0.5,0.5,0.9c0,0.6-0.5,1-1,1c-0.4,0-0.6-0.2-0.8-0.2c-0.1,0-0.1,0.1-0.2,0.2h-0.1l-0.2-1.2h0.1c0.2,0.6,0.6,1,1,1
		c0.3,0,0.6-0.2,0.6-0.6c0-0.4-0.2-0.5-0.4-0.7c-0.2-0.2-0.5-0.4-0.7-0.5c-0.3-0.2-0.5-0.5-0.5-0.9c0-0.5,0.3-0.9,0.9-0.9
		c0.2,0,0.5,0.2,0.7,0.2c0.1,0,0.2-0.1,0.2-0.2H-328.5L-328.5,1569.7z"/>
	<path d="M-326.4,1570.4c0-0.3,0.2-0.5,0.5-0.5v-0.1h-1.5v0.1c0.3,0,0.5,0.1,0.5,0.5v2.5c0,0.3-0.2,0.5-0.5,0.5v0.1h1.5v-0.1
		c-0.3,0-0.5-0.1-0.5-0.5V1570.4L-326.4,1570.4z"/>
	<path d="M-334.9,1572.6c-0.2,0.4-0.4,0.7-1,0.7c-0.1,0-0.4,0-0.6,0c-0.2,0-0.3-0.1-0.3-0.2c0-0.1,0-0.7,0-1.3c0.1,0,0.6,0,0.8,0
		c0.3,0,0.5,0.2,0.5,0.5h0.1v-1.3h-0.1c0,0.4-0.2,0.5-0.5,0.5c-0.2,0-0.7,0-0.8,0c0-0.6,0-1.2,0-1.2c0-0.1,0.1-0.2,0.2-0.2
		c0.1,0,0.4,0,0.7,0c0.4,0,0.6,0.2,0.7,0.6h0.1l0-0.8h-2.7v0.1c0.3,0,0.5,0.1,0.5,0.5v2.5c0,0.3-0.1,0.5-0.5,0.5v0.1h2.7l0.2-1
		H-334.9L-334.9,1572.6z"/>
	<path d="M-331.4,1573.2c-0.1-0.1-0.9-1.2-1.1-1.5c0.7-0.1,0.9-0.5,0.9-1c0-0.6-0.4-1-1.2-1c-0.1,0-1.5,0-1.5,0v0.1
		c0.3,0,0.5,0.1,0.5,0.5v2.5c0,0.3-0.1,0.5-0.5,0.5v0.1h1.4v-0.1c-0.3,0-0.5-0.1-0.5-0.5v-1.1c0.1,0,0.2,0,0.3,0l1.2,1.7h0.8v-0.1
		C-331.2,1573.4-331.3,1573.3-331.4,1573.2L-331.4,1573.2z M-333.3,1571.6v-1.2c0-0.3,0.1-0.3,0.3-0.3c0.6,0,0.9,0.3,0.9,0.8
		c0,0.6-0.4,0.8-1.1,0.8C-333.2,1571.6-333.3,1571.6-333.3,1571.6L-333.3,1571.6z"/>
	<path d="M-342.7,1570.4c0-0.3,0.2-0.5,0.5-0.5v-0.1h-1.5v0.1c0.3,0,0.5,0.1,0.5,0.5v2.5c0,0.3-0.2,0.5-0.5,0.5v0.1h1.5v-0.1
		c-0.3,0-0.5-0.1-0.5-0.5V1570.4L-342.7,1570.4z"/>
	<path d="M-340.3,1570v-0.1h-1.4v0.1c0.2,0,0.3,0.1,0.5,0.4s1.3,3.2,1.3,3.2h0.1c0,0,1.1-3,1.2-3.2c0.1-0.3,0.3-0.4,0.4-0.4v-0.1h-1
		v0.1c0.2,0,0.4,0.1,0.4,0.3c0,0,0,0.1,0,0.1c0,0.1-0.8,2.2-0.8,2.2s-0.9-2.1-0.9-2.2c0,0,0-0.1,0-0.2
		C-340.7,1570-340.5,1570-340.3,1570L-340.3,1570z"/>
	<path d="M-352.7,1568.8c0.4,0,0.6,0.2,0.6,0.8c0,0.6,0,1.3,0,2.3c0,1.2,0.6,1.8,1.7,1.8c1,0,1.7-0.6,1.7-1.7c0-1,0-2.1,0-2.5
		c0-0.4,0.1-0.6,0.6-0.6v-0.1h-1.5v0.1c0.4,0,0.6,0.2,0.6,0.7c0,0.5,0,1.8,0,2.6c0,0.8-0.6,1.3-1.3,1.3c-0.7,0-1.3-0.4-1.3-1.3
		c0-0.9,0-2.2,0-2.6c0-0.4,0.1-0.6,0.6-0.6v-0.1h-1.7V1568.8L-352.7,1568.8z"/>
	<path d="M-345.7,1569.8v0.1c0.3,0,0.5,0.2,0.5,0.6c0,0.2,0,1.3,0,1.9l-1.9-2.6h-0.8v0.1c0.2,0,0.3,0.1,0.4,0.2c0,0,0,0.1,0.1,0.1
		c0,0.4,0,2.1,0,2.5c0,0.4-0.1,0.6-0.5,0.6v0.1h1.2v-0.1c-0.3,0-0.5-0.2-0.5-0.5c0-0.3,0-1.7,0-2.3c0.7,0.9,2.2,3,2.2,3h0.1
		c0,0,0-2.6,0-3c0-0.5,0.2-0.6,0.5-0.6v-0.1H-345.7L-345.7,1569.8z"/>
	<path d="M-318.3,1577.2l0,1h-0.1c-0.1-0.6-0.3-0.7-1.1-0.7v2.8c0,0.3,0.2,0.5,0.5,0.5v0.1h-1.5v-0.1c0.3,0,0.5-0.1,0.5-0.5v-2.8
		c-0.8,0-1,0.1-1.1,0.7h-0.1l0-1H-318.3L-318.3,1577.2z"/>
	<path d="M-323.2,1577.2c-0.9,0-1.7,0.7-1.7,1.9c0,1.2,0.7,1.9,1.7,1.9c0.9,0,1.7-0.7,1.7-1.9
		C-321.6,1577.9-322.3,1577.2-323.2,1577.2L-323.2,1577.2z M-323.2,1580.8c-0.7,0-1.1-0.7-1.1-1.7c0-1,0.4-1.7,1.1-1.7
		c0.7,0,1.1,0.7,1.1,1.7C-322.1,1580.1-322.5,1580.8-323.2,1580.8L-323.2,1580.8z"/>
	<path d="M-315.4,1580.5c-0.1-0.2-1.3-3.3-1.3-3.3h-0.1c0,0-1.1,2.9-1.2,3.2c-0.1,0.3-0.3,0.4-0.4,0.4v0.1h1v-0.1
		c-0.1,0-0.3-0.1-0.3-0.3c0,0,0-0.1,0-0.1c0,0,0.1-0.3,0.2-0.7h1.3c0.1,0.4,0.2,0.6,0.2,0.6c0,0,0,0.1,0,0.2c0,0.1-0.1,0.3-0.3,0.3
		v0.1h1.3v-0.1C-315.2,1580.8-315.3,1580.6-315.4,1580.5L-315.4,1580.5z M-317.4,1579.5c0.3-0.7,0.5-1.5,0.5-1.5
		c0,0,0.3,0.8,0.5,1.5H-317.4L-317.4,1579.5z"/>
	<path d="M-328.5,1580c-0.2,0.4-0.4,0.7-1,0.7c-0.1,0-0.4,0-0.6,0c-0.2,0-0.3-0.1-0.3-0.2c0-0.1,0-0.7,0-1.3c0.1,0,0.6,0,0.8,0
		c0.3,0,0.5,0.2,0.5,0.5h0.1v-1.3h-0.1c0,0.4-0.2,0.5-0.5,0.5c-0.2,0-0.7,0-0.8,0c0-0.6,0-1.2,0-1.2c0-0.1,0.1-0.2,0.2-0.2
		s0.4,0,0.7,0c0.4,0,0.6,0.2,0.7,0.6h0.1l0-0.8h-2.7v0.1c0.3,0,0.5,0.1,0.5,0.5v2.5c0,0.3-0.1,0.5-0.5,0.5v0.1h2.7l0.2-1H-328.5
		L-328.5,1580z"/>
	<path d="M-325.7,1577.1l0.1,1.2h-0.1c-0.2-0.6-0.5-1-0.9-1c-0.3,0-0.5,0.2-0.5,0.5c0,0.3,0.2,0.5,0.5,0.7c0.3,0.2,0.5,0.3,0.6,0.4
		c0.3,0.2,0.5,0.5,0.5,0.9c0,0.6-0.5,1-1,1c-0.4,0-0.6-0.2-0.8-0.2c-0.1,0-0.1,0.1-0.2,0.2h-0.1l-0.2-1.2h0.1c0.2,0.6,0.6,1,1,1
		c0.3,0,0.6-0.2,0.6-0.6c0-0.4-0.2-0.5-0.4-0.7c-0.2-0.2-0.5-0.4-0.7-0.5c-0.3-0.2-0.5-0.5-0.5-0.9c0-0.5,0.3-0.9,0.9-0.9
		c0.2,0,0.5,0.2,0.7,0.2c0.1,0,0.2-0.1,0.2-0.2H-325.7L-325.7,1577.1z"/>
	<path d="M-333.1,1577.2v0.1c0.3,0,0.5,0.2,0.5,0.6c0,0.2,0,1.3,0,1.9l-1.9-2.6h-0.8v0.1c0.2,0,0.3,0.1,0.4,0.2c0,0,0,0.1,0.1,0.1
		c0,0.4,0,2.1,0,2.5c0,0.4-0.1,0.6-0.5,0.6v0.1h1.2v-0.1c-0.3,0-0.5-0.2-0.5-0.5c0-0.3,0-1.7,0-2.3c0.7,0.9,2.2,3,2.2,3h0.1
		c0,0,0-2.6,0-3c0-0.5,0.2-0.6,0.5-0.6v-0.1H-333.1L-333.1,1577.2z"/>
	<path d="M-337.2,1577.2v0.1c0.3,0,0.5,0.2,0.5,0.6c0,0.2,0,1.3,0,1.9l-1.9-2.6h-0.8v0.1c0.2,0,0.3,0.1,0.4,0.2c0,0,0,0.1,0.1,0.1
		c0,0.4,0,2.1,0,2.5c0,0.4-0.1,0.6-0.5,0.6v0.1h1.2v-0.1c-0.3,0-0.5-0.2-0.5-0.5c0-0.3,0-1.7,0-2.3c0.7,0.9,2.2,3,2.2,3h0.1
		c0,0,0-2.6,0-3c0-0.5,0.2-0.6,0.5-0.6v-0.1H-337.2L-337.2,1577.2z"/>
	<path d="M-342.1,1576.2v-0.1h-1.1l-1.5,4l-1.5-4h-1.2v0.1c0.5,0,0.6,0.3,0.6,0.7s0,2.9,0,3c0,0.7-0.2,0.9-0.6,0.9v0.1h1.5v-0.1
		c-0.4,0-0.6-0.2-0.6-0.9s0-3.1,0-3.1l1.6,4.2h0.1l1.6-4.2c0,0,0,3.1,0,3.2c0,0.7-0.2,0.9-0.6,0.9v0.1h1.7v-0.1
		c-0.4,0-0.6-0.2-0.6-0.9c0-0.3,0-2.7,0-3.1C-342.7,1576.3-342.4,1576.2-342.1,1576.2L-342.1,1576.2z"/>
	<path d="M-340.7,1577.8c0-0.3,0.2-0.5,0.5-0.5v-0.1h-1.5v0.1c0.3,0,0.5,0.1,0.5,0.5v2.5c0,0.3-0.2,0.5-0.5,0.5v0.1h1.5v-0.1
		c-0.3,0-0.5-0.1-0.5-0.5V1577.8L-340.7,1577.8z"/>
	<path d="M-354.4,1577.2c-0.9,0-1.7,0.7-1.7,1.9c0,1.2,0.7,1.9,1.7,1.9s1.7-0.7,1.7-1.9C-352.7,1577.9-353.4,1577.2-354.4,1577.2
		L-354.4,1577.2z M-354.4,1580.8c-0.7,0-1.1-0.7-1.1-1.7c0-1,0.4-1.7,1.1-1.7c0.7,0,1.1,0.7,1.1,1.7
		C-353.3,1580.1-353.7,1580.8-354.4,1580.8L-354.4,1580.8z"/>
	<path d="M-349.5,1577.2h-2.7v0.1c0.3,0,0.5,0.1,0.5,0.5v2.5c0,0.3-0.1,0.5-0.5,0.5v0.1h1.4v-0.1c-0.3,0-0.5-0.1-0.5-0.5
		c0-0.1,0-0.6,0-1.2c0.1,0,0.6,0,0.8,0c0.3,0,0.5,0.2,0.5,0.5h0.1v-1.3h-0.1c0,0.4-0.2,0.5-0.5,0.5c-0.2,0-0.7,0-0.8,0
		c0-0.6,0-1.2,0-1.2c0-0.1,0.1-0.2,0.2-0.2c0.1,0,0.4,0,0.7,0c0.4,0,0.6,0.2,0.7,0.6h0.1L-349.5,1577.2L-349.5,1577.2z"/>
	<path d="M-316.4,1562.4c0.1,0,0.2,0.1,0.3,0.2c0.1,0.1,0.1,0.2,0.2,0.2c0.1,0.1,0.1,0.2,0.1,0.4c0,0.2,0,0.3-0.1,0.4
		c-0.1,0.1-0.2,0.2-0.3,0.3c-0.1,0.1-0.3,0.1-0.4,0.1c-0.1,0-0.3,0-0.4-0.1c-0.1-0.1-0.2-0.2-0.3-0.3c-0.1-0.1-0.1-0.3-0.1-0.4
		c0-0.1,0-0.2,0.1-0.4c0-0.1,0.1-0.2,0.2-0.3c0.1-0.1,0.2-0.1,0.2-0.2c0.1-0.1,0.2-0.1,0.4-0.1
		C-316.7,1562.3-316.6,1562.3-316.4,1562.4L-316.4,1562.4z M-315.8,1562.7c0-0.1-0.1-0.2-0.2-0.3c-0.1-0.1-0.2-0.2-0.3-0.2
		c-0.1-0.1-0.3-0.1-0.4-0.1c-0.2,0-0.3,0-0.4,0.1c-0.1,0-0.2,0.1-0.3,0.2c-0.1,0.1-0.2,0.2-0.2,0.3c-0.1,0.1-0.1,0.3-0.1,0.4
		c0,0.2,0,0.3,0.1,0.5c0.1,0.2,0.2,0.3,0.4,0.4c0.2,0.1,0.3,0.1,0.5,0.1c0.2,0,0.3,0,0.4-0.1c0.1-0.1,0.2-0.1,0.3-0.2
		c0.1-0.1,0.2-0.2,0.2-0.3c0-0.1,0.1-0.3,0.1-0.4C-315.7,1563-315.8,1562.9-315.8,1562.7L-315.8,1562.7z M-316.8,1563.3
		c0.1,0,0.1,0,0.1,0c0,0,0.1,0,0.1,0.1c0,0,0,0.1,0,0.1c0,0.1,0,0.2,0,0.2h0.2c0,0,0-0.1,0-0.1c0-0.1,0-0.1,0-0.1c0,0,0-0.1,0-0.1
		c0,0,0-0.1-0.1-0.1c0,0-0.1,0-0.1,0c0.1,0,0.1,0,0.1,0c0,0,0.1-0.1,0.1-0.1c0,0,0-0.1,0-0.2c0-0.1,0-0.1,0-0.2c0,0-0.1-0.1-0.1-0.1
		c0,0-0.1,0-0.2-0.1c0,0-0.1,0-0.2,0h-0.4v1.1h0.3v-0.4H-316.8L-316.8,1563.3z M-316.7,1562.8
		C-316.6,1562.8-316.6,1562.8-316.7,1562.8c0.1,0.1,0.1,0.1,0.1,0.2c0,0,0,0.1,0,0.1c0,0,0,0.1-0.1,0.1c0,0-0.1,0-0.1,0h-0.2v-0.4
		h0.2C-316.7,1562.8-316.7,1562.8-316.7,1562.8L-316.7,1562.8z"/>
	<polygon points="-320.6,1559 -326.6,1549.1 -325,1549.1 -325,1544 -334.9,1544 -334.9,1549.1 -333.2,1549.1 -335.5,1552.9 
		-337.8,1549.1 -336.1,1549.1 -336.1,1544 -346.1,1544 -346.1,1549.1 -344.4,1549.1 -350.4,1559 -352.5,1559 -352.5,1564.2 
		-342.4,1564.2 -342.4,1559 -344.2,1559 -341.1,1553.9 -339.9,1555.9 -341,1555.9 -341,1561 -330,1561 -330,1555.9 -331.1,1555.9 
		-329.9,1553.9 -326.8,1559 -328.6,1559 -328.6,1564.2 -318.5,1564.2 -318.5,1559 -320.6,1559 	"/>
</g>
<g>
	<path d="M169.7,175c0,0,8.3-19.9,10.6-25.2c1-2.4,3.4-7.1,9.6-7.1s8.5,4.6,9.7,7.1c1.4,3.1,4.5,10.8,4.6,10.8
		c-10.3,3.1-20,7-29.2,11.6C173.1,173.1,171.4,174,169.7,175z M235.6,191.5c-0.4,4-2.5,10.7-11,18.7c0,0,8.7,21.1,8.7,21.1
		c0.8,2-0.3,3.7-2.5,3.7h-21.8c-2.2,0-3.8-1.7-4.7-3.7l-2.3-5.6c-14.3,7.4-29.4,11.5-41.7,11.5c-4.4,0-8.5-0.5-12.1-1.6
		c-5.5-1.7-9.5-4.7-11.5-8.6c-3.6-7-1.1-16.6,7.2-26.8c5.1-6.3,11.9-12.5,20-18c3.9-2.6,8-4.9,12.2-7.1c9.1-4.6,18.8-8.4,29-11.5
		c0,0.1,4.9,11.7,4.9,11.8c10.5-2,16.6,0.5,20.1,3.4C234.2,181.9,236.1,186.5,235.6,191.5z M165.3,185.5c-7.5,5.2-13.9,11-18.6,16.9
		c-7.2,9-9.7,17.4-6.8,23c1.2,2.4,3.4,4.4,6.4,5.8C146.4,231.1,165.3,185.5,165.3,185.5z M200.7,222.5l-8.8-21.2
		c-0.1-0.3-0.3-0.6-0.4-0.8c-0.3-0.5-0.9-0.9-1.6-0.9c-0.7,0-1.3,0.4-1.6,0.9c-0.2,0.2-0.3,0.5-0.4,0.8c0,0-12.8,30.8-12.8,30.8
		C183.3,230.2,192.1,227,200.7,222.5z M228,181.4c-4-3.3-10-3.9-16.5-2.8c0,0,11.7,28.1,11.7,28.1c5.4-5.3,8.5-10.7,8.9-15.5
		C232.5,187.3,231.1,183.9,228,181.4z M216.5,163.3c2.5,0,4.6-2,4.6-4.6c0-2.5-2-4.6-4.6-4.6c-2.5,0-4.6,2-4.6,4.6
		C212,161.3,214,163.3,216.5,163.3z"/>
	<g>
		<g>
			<path d="M275.5,233.7v-0.3V233c0-0.6-0.2-1.2-0.5-1.6c-0.3-0.4-0.8-0.6-1.4-0.6h0h0c-0.6,0-1,0.2-1.3,0.6
				c-0.3,0.4-0.5,0.9-0.5,1.5v1.1v1.1h2.5h2.5v-0.7v-0.7h-0.7H275.5z M274.4,233.3v0.3h-0.7H273v-0.3V233c0-0.3,0.1-0.5,0.2-0.6
				c0.1-0.1,0.3-0.2,0.5-0.2h0h0c0.2,0,0.4,0.1,0.5,0.2c0.1,0.1,0.2,0.3,0.2,0.6V233.3z"/>
			<polygon points="275.7,224.5 275.7,225.7 275.7,227 273.8,227 271.9,227 271.9,227.7 271.9,228.4 274.4,228.4 276.9,228.4 
				276.9,226.4 276.9,224.5 276.3,224.5 			"/>
			<path d="M271.8,219.2v0.7v0.7l2.5,1.1l2.5,1.1v-0.7v-0.7l-0.5-0.2l-0.5-0.2v-1v-1l0.5-0.2l0.5-0.2v-0.7V217l-2.5,1.1L271.8,219.2
				z M274.9,219.9v0.6l-0.7-0.3l-0.7-0.3l0.7-0.3l0.7-0.3V219.9z"/>
			<polygon points="271.9,209.8 271.9,210.5 271.9,211.2 273.2,211.2 274.5,211.2 273.2,212.2 271.9,213.2 271.9,213.9 271.9,214.5 
				274.4,214.5 276.9,214.5 276.9,213.8 276.9,213.2 275.5,213.2 274.1,213.2 275.5,212.1 276.9,211 276.9,210.4 276.9,209.8 
				274.4,209.8 			"/>
			<polygon points="275.7,202.4 275.7,203.8 275.7,205.1 275.3,205.1 274.9,205.1 274.9,203.9 274.9,202.7 274.4,202.7 273.8,202.7 
				273.8,203.9 273.8,205.1 273.4,205.1 273.1,205.1 273.1,203.8 273.1,202.4 272.5,202.4 271.9,202.4 271.9,204.5 271.9,206.5 
				274.4,206.5 276.9,206.5 276.9,204.4 276.9,202.4 276.3,202.4 			"/>
			<polygon points="273.1,196.9 273.1,196.1 273.1,195.4 272.5,195.4 271.9,195.4 271.9,197.6 271.9,199.8 272.5,199.8 273.1,199.8 
				273.1,199 273.1,198.3 275,198.3 276.9,198.3 276.9,197.6 276.9,196.9 275,196.9 			"/>
			<path d="M271.8,190.2v0.7v0.7l2.5,1.1l2.5,1.1v-0.7v-0.7l-0.5-0.2l-0.5-0.2v-1v-1l0.5-0.2l0.5-0.2v-0.7V188l-2.5,1.1L271.8,190.2
				z M274.9,190.9v0.6l-0.7-0.3l-0.7-0.3l0.7-0.3l0.7-0.3V190.9z"/>
			<path d="M275.2,181.9c-0.1-0.3-0.3-0.6-0.6-0.8c-0.3-0.2-0.6-0.3-1-0.3h0h0c-0.2,0-0.5,0-0.7,0.1c-0.2,0.1-0.4,0.2-0.5,0.3
				c-0.2,0.2-0.3,0.4-0.4,0.7c-0.1,0.3-0.1,0.6-0.1,1v1.2v1.2h2.5h2.5v-0.7V184h-0.8h-0.8v-0.3v-0.3l0.8-0.5l0.8-0.5v-0.8v-0.8
				l-0.9,0.6L275.2,181.9z M274.3,183.5v0.5h-0.6h-0.6v-0.5V183c0-0.2,0.1-0.4,0.2-0.6c0.1-0.1,0.2-0.2,0.4-0.2h0h0
				c0.2,0,0.3,0.1,0.4,0.2c0.1,0.1,0.2,0.3,0.2,0.6V183.5z"/>
			<polygon points="271.9,176.5 271.9,177.2 271.9,177.9 274.4,177.9 276.9,177.9 276.9,177.2 276.9,176.5 274.4,176.5 			"/>
			<path d="M274.7,173.4c0.8,0,1.4-0.2,1.7-0.6c0.4-0.4,0.6-1,0.6-1.7c0-0.7-0.2-1.3-0.6-1.7c-0.4-0.4-1-0.6-1.8-0.6h-1.4h-1.4v0.7
				v0.7h1.4h1.4c0.4,0,0.6,0.1,0.8,0.3c0.2,0.2,0.3,0.4,0.3,0.7c0,0.3-0.1,0.5-0.3,0.7c-0.2,0.2-0.4,0.3-0.8,0.3h-1.4h-1.4v0.7v0.7
				h1.4H274.7z"/>
			<polygon points="276.9,165.6 276.9,164.9 276.9,164.2 275.5,164.2 274,164.2 275,163.5 276,162.9 276,162.9 276,162.9 275,162.2 
				274,161.6 275.5,161.6 276.9,161.6 276.9,160.9 276.9,160.2 274.4,160.2 271.9,160.2 271.9,160.9 271.9,161.7 272.8,162.3 
				273.8,162.9 272.8,163.5 271.9,164.1 271.9,164.8 271.9,165.6 274.4,165.6 			"/>
		</g>
		<g>
			<path d="M252.9,160.4h-0.7h-1.1c-0.3,0-0.5,0.2-0.5,0.5c0,0,0,3.6,0,3.9c0,0.3,0.2,0.5,0.5,0.5c0.3,0,3.1,0,3.1,0h12
				c0.3,0,0.5-0.2,0.5-0.5v-4.1c0-0.3-0.2-0.5-0.5-0.5h-8.2c-2,0-2.9-1.1-2.9-2.9c0-0.8,0.1-1.6,0.3-2.2c0-0.2-0.2-0.4-0.4-0.4
				l-2-0.2c0,0-1.7-0.2-2-0.2c-0.3,0-0.6,0.2-0.6,0.4c-0.1,0.3-0.1,0.8-0.1,1.3C250.3,159,252.9,160.4,252.9,160.4z"/>
			<path d="M258.8,183.8c5,0,8.4-3.4,8.4-8.5c0-2.8-0.9-5.1-2.4-6.8c-0.2-0.2-0.4-0.1-0.5,0l-2.4,2.6c-0.2,0.2-0.2,0.6-0.1,0.8
				c0,0,0.2,0.3,0.4,0.6c0.5,0.8,0.7,1.7,0.7,2.5c0,1.8-0.8,3-2.6,3.4v-5.3v-5c0-0.3-0.2-0.6-0.5-0.6c0,0,0,0,0,0
				c-0.3,0-0.7,0-1.1,0c-5,0-8.5,3.3-8.5,8C250.3,180.4,253.8,183.8,258.8,183.8z M257.1,172.6v5.8c-1.6-0.4-2.5-1.4-2.5-2.9
				C254.6,174,255.5,173,257.1,172.6z"/>
			<path d="M265,199.1h1.2c0.3,0,0.5-0.1,0.5-0.5v-3.9c0-0.3-0.2-0.5-0.5-0.5h-22.5c-0.4,0-0.5,0.2-0.5,0.5v4.1
				c0,0.3,0.2,0.5,0.5,0.5h2.7h5.8c-1.2,1-2,2.4-2,4.4c0,4.3,3.7,7.5,8.4,7.5c4.7,0,8.5-3.2,8.5-7.5
				C267.2,201.6,266.3,200.1,265,199.1z M258.7,205.9c-2.2,0-3.7-1.4-3.7-3.4c0-2,1.3-3.4,3.7-3.4c2.1,0,3.7,1.4,3.7,3.4
				C262.4,204.6,260.8,205.9,258.7,205.9z"/>
			<path d="M243.7,191h22.6c0.3,0,0.5-0.2,0.5-0.5c0-0.3,0-3.8,0-4.1c0-0.3-0.2-0.5-0.5-0.5h-22.6c-0.3,0-0.5,0.2-0.5,0.5
				c0,0.3,0,3.8,0,4.1C243.2,190.8,243.4,191,243.7,191z"/>
			<path d="M266.3,211c0,0-18.3,7.8-19.6,8.3c-1.9,0.8-3,1.6-3,3.9c0,2.2,1.2,3.1,3.1,3.9s19.5,8.3,19.5,8.3c0.3,0.1,0.5,0,0.5-0.3
				c0-0.3,0-4.4,0-4.7c0-0.4-0.2-0.6-0.5-0.7l-3.2-1.3v-9.9l3.2-1.3c0.4-0.1,0.5-0.3,0.5-0.7c0-0.4,0-4.8,0-5.1
				C266.8,210.9,266.5,210.8,266.3,211z M258.7,226.5l-8-3.2l0,0l8-3.2V226.5z"/>
		</g>
	</g>
</g>
</svg>
