<?xml version="1.0" encoding="utf-8"?>
<!-- Generator: Adobe Illustrator 21.1.0, SVG Export Plug-In . SVG Version: 6.00 Build 0)  -->
<svg version="1.1" id="Layer_1" xmlns="http://www.w3.org/2000/svg" xmlns:xlink="http://www.w3.org/1999/xlink" x="0px" y="0px"
	 viewBox="0 0 1000 918.5" style="enable-background:new 0 0 1000 918.5;" xml:space="preserve">
<style type="text/css">
	.st0{fill:#007482;}
	.st1{fill:#231F20;}
	.st2{fill:#FFFFFF;}
</style>
<path class="st0" d="M587.6,459.3c0-4.2,0-9.8-1.4-13.9C648.7,397.9,707,351.9,758.4,310c23.6,46,36.1,96.2,36.1,150.6v2.8
	c0,170.2-120.8,308.2-294.3,308.2c-90.2,0-168-39.1-220.8-99c54.1-37.7,115.2-80.9,177.7-128.3c12.5,7,26.4,9.8,40.3,9.8
	C547.3,554.1,587.6,512.3,587.6,459.3 M203,460.7v-2.8c0-170.2,120.8-308.2,294.3-308.2c90.3,0,168,39.1,220.8,99
	C664,286.3,602.9,329.5,540.4,377c-12.5-7-26.4-9.8-40.3-9.8c-50,0-90.2,41.8-90.2,94.8c0,4.2,0,9.8,1.4,13.9
	c-62.5,47.4-120.8,93.4-172.2,135.3C215.5,565.3,203,515.1,203,460.7 M43.3,459.3v2.8c0,92.1,26.4,178.5,73.6,249.7
	C42,777.3,0.3,821.9,7.3,830.3c6.9,8.4,61.1-19.5,144.4-72.5c80.5,93.4,202.7,154.8,347.1,154.8c268,0,458.2-207.8,458.2-453.3v-2.8
	c0-92-26.4-178.5-73.6-249.7C956.9,142.7,998.6,98,993,88.3c-6.9-8.4-61.1,19.5-144.4,72.5C768.1,67.3,645.9,6,501.5,6
	C233.6,6,43.3,213.8,43.3,459.3"/>
</svg>
