<svg xmlns="http://www.w3.org/2000/svg" viewBox="0 0 2391.11 436.4"><defs><style>.cls-1{fill:#231f20;}</style></defs><title>zooniverse-adler-logo</title><g id="Layer_2" data-name="Layer 2"><g id="Layer_1-2" data-name="Layer 1"><polygon class="cls-1" points="17.64 5 17.64 42.31 154.62 42.31 13.08 214.62 13.08 245.77 209.41 245.77 209.41 208.46 67.87 208.46 209.41 36.15 209.41 5 17.64 5"/><path class="cls-1" d="M292.74,125.38v-.77c0-46.54,33.1-85,80.66-85s81.42,38.84,81.42,85.77v.77c0,46.54-33.48,85-80.66,85-47.56,0-81.42-38.84-81.42-85.77m-44.52,0v.77C248.22,193.84,299.59,250,373,250s125.56-56.92,125.56-124.62v-.77C498.58,56.92,447.21.77,373.78.77S248.22,57.69,248.22,125.38"/><polygon class="cls-1" points="1021.75 5 1021.75 171.54 893.52 5 854.33 5 854.33 245.77 895.8 245.77 895.8 74.62 1027.83 245.77 1063.21 245.77 1063.21 5 1021.75 5"/><rect class="cls-1" x="1123.71" y="5" width="42.24" height="240.77"/><polygon class="cls-1" points="1406.8 5 1334.88 190 1262.59 5 1216.17 5 1315.86 247.31 1352.77 247.31 1452.45 5 1406.8 5"/><polygon class="cls-1" points="1500.39 5 1500.39 245.77 1679.98 245.77 1679.98 208.07 1542.63 208.07 1542.63 143.46 1662.86 143.46 1662.86 105.39 1542.63 105.39 1542.63 42.69 1678.08 42.69 1678.08 5 1500.39 5"/><path class="cls-1" d="M1779.28,123.85V43.46h61.26c30.82,0,49.46,14.23,49.46,39.62v.77c0,24.62-19.41,40-49.46,40ZM1736.29,5h-.38V245.77h42.23V161.54h53.27l59,84.23h49.46l-64.68-91.16c33.48-9.23,57.07-33.46,57.07-72.69v-.77c0-21.15-7.23-38.85-19.78-51.92C1896.86,13.85,1873.27,5,1843.21,5Z"/><path class="cls-1" d="M1984.37,71.54v.77c0,44.23,28.92,59.61,79.9,71.92,44.52,10.38,54,19.62,54,36.54v.77c0,18.08-16.74,30.38-42.61,30.38-29.68,0-52.89-11.54-75.72-31.16l-25.49,30.38c28.92,26.15,63.54,38.47,100.07,38.47,50.22,0,85.61-26.93,85.61-71.92v-.77c0-40-26.26-58.46-76.86-70.77C2037.63,95,2026.6,86.92,2026.6,68.46v-.77c0-16.15,14.46-28.84,39.19-28.84,22.07,0,43.37,8.85,65.06,25l22.45-31.92C2129,12.31,2101.18,1.54,2066.17,1.54c-47.56,0-81.8,28.84-81.8,70"/><polygon class="cls-1" points="2211.52 5 2211.52 245.77 2391.11 245.77 2391.11 208.07 2253.75 208.07 2253.75 143.46 2373.99 143.46 2373.99 105.39 2253.75 105.39 2253.75 42.69 2389.21 42.69 2389.21 5 2211.52 5"/><path class="cls-1" d="M695.29,125a13.13,13.13,0,0,0-.38-3.84C712,108.08,728,95.39,742.09,83.85A90.33,90.33,0,0,1,752,125.38v.77c0,46.92-33.1,85-80.66,85a79.65,79.65,0,0,1-60.5-27.3c14.84-10.39,31.58-22.31,48.7-35.39a22.32,22.32,0,0,0,11,2.7c13.69,0,24.73-11.54,24.73-26.15m-105.4.38v-.77c0-46.92,33.1-85,80.67-85a79.63,79.63,0,0,1,60.49,27.31c-14.83,10.39-31.58,22.31-48.7,35.39a22.33,22.33,0,0,0-11-2.7c-13.7,0-24.73,11.54-24.73,26.16a13.14,13.14,0,0,0,.38,3.84c-17.12,13.08-33.1,25.77-47.18,37.31a90.31,90.31,0,0,1-9.89-41.54M546.14,125v.77a124.84,124.84,0,0,0,20.16,68.85c-20.54,18.08-32,30.38-30.05,32.69s16.74-5.39,39.57-20C597.88,233.08,631.37,250,670.94,250c73.43,0,125.56-57.31,125.56-125v-.77a124.77,124.77,0,0,0-20.17-68.84c20.17-17.69,31.58-30,30.06-32.69-1.9-2.31-16.74,5.38-39.57,20C744.75,16.92,711.27,0,671.7,0,598.27,0,546.14,57.31,546.14,125"/><path class="cls-1" d="M.27,431.48,43,339.63a2.77,2.77,0,0,1,2.32-1.5h1.36a2.77,2.77,0,0,1,2.32,1.5l42.72,91.85A2.41,2.41,0,0,1,89.39,435H74.24c-2.46,0-3.55-.82-4.78-3.41l-4.91-10.78H27.43l-4.91,10.92A5.09,5.09,0,0,1,17.61,435h-15A2.41,2.41,0,0,1,.27,431.48Zm56.09-29.21L46,379.76h-.14L35.62,402.27Z"/><path class="cls-1" d="M121.61,342.09a2.56,2.56,0,0,1,2.45-2.59h33.3a47.77,47.77,0,1,1,0,95.53h-33.3a2.56,2.56,0,0,1-2.45-2.59Zm35.62,72.74c15.42,0,25.39-12.15,25.39-27.71s-10-27.57-25.39-27.57H142.9v55.27Z"/><path class="cls-1" d="M237.89,342.09a2.59,2.59,0,0,1,2.59-2.59h16.24a2.69,2.69,0,0,1,2.59,2.59V415H291.8a2.59,2.59,0,0,1,2.59,2.59v14.88A2.59,2.59,0,0,1,291.8,435H240.49a2.59,2.59,0,0,1-2.59-2.59Z"/><path class="cls-1" d="M329.33,342.09a2.59,2.59,0,0,1,2.59-2.59h56.5a2.59,2.59,0,0,1,2.59,2.59V357a2.59,2.59,0,0,1-2.59,2.59h-37.8v16.92h31.12a2.69,2.69,0,0,1,2.59,2.59v14.87a2.59,2.59,0,0,1-2.59,2.59H350.62V415h37.8a2.59,2.59,0,0,1,2.59,2.59v14.88a2.59,2.59,0,0,1-2.59,2.59h-56.5a2.59,2.59,0,0,1-2.59-2.59Z"/><path class="cls-1" d="M424.6,342.09a2.59,2.59,0,0,1,2.59-2.59H468c17.33,0,29.75,13.24,29.75,29.48,0,12.56-7.51,22.66-20.2,27.43l18.7,34.67a2.58,2.58,0,0,1-2.32,4H475.78a2.5,2.5,0,0,1-2.18-1.23l-18.15-36.17H446v34.8a2.68,2.68,0,0,1-2.59,2.59H427.19a2.59,2.59,0,0,1-2.59-2.59Zm41.62,38.21c5.59,0,10.37-4.51,10.37-10.92A10,10,0,0,0,466.23,359H446V380.3Z"/><path class="cls-1" d="M585.92,342.09a2.59,2.59,0,0,1,2.59-2.59H621.4c18,0,30.57,13.65,30.57,30.16,0,16.92-12.56,30.71-30.43,30.71H607.21v32.07a2.68,2.68,0,0,1-2.59,2.59H588.51a2.59,2.59,0,0,1-2.59-2.59ZM621,380.44c5.87,0,10-4.64,10-10.78a9.72,9.72,0,0,0-10-10.1H607.21v20.88Z"/><path class="cls-1" d="M684.87,342.09a2.59,2.59,0,0,1,2.59-2.59H703.7a2.68,2.68,0,0,1,2.59,2.59V415h32.48a2.59,2.59,0,0,1,2.59,2.59v14.88a2.59,2.59,0,0,1-2.59,2.59H687.46a2.59,2.59,0,0,1-2.59-2.59Z"/><path class="cls-1" d="M765.53,431.48l42.72-91.85a2.77,2.77,0,0,1,2.32-1.5h1.36a2.77,2.77,0,0,1,2.32,1.5L857,431.48a2.41,2.41,0,0,1-2.32,3.55H839.5c-2.46,0-3.55-.82-4.78-3.41l-4.91-10.78H792.69l-4.91,10.92a5.09,5.09,0,0,1-4.91,3.27h-15A2.41,2.41,0,0,1,765.53,431.48Zm56.09-29.21-10.37-22.52h-.14l-10.24,22.52Z"/><path class="cls-1" d="M881.26,340.59a2.57,2.57,0,0,1,2.59-2.46h2c1.36,0,2.32,1,3.41,2l52.41,50.36h.13V342.09a2.59,2.59,0,0,1,2.59-2.59h16.38a2.68,2.68,0,0,1,2.59,2.59v91.85a2.4,2.4,0,0,1-2.59,2.46h-1.36a4.38,4.38,0,0,1-3.41-1.5L903,381.53h-.14v50.91a2.59,2.59,0,0,1-2.59,2.59H884a2.68,2.68,0,0,1-2.59-2.59Z"/><path class="cls-1" d="M1004.1,342.09a2.59,2.59,0,0,1,2.59-2.59h56.5a2.59,2.59,0,0,1,2.59,2.59V357a2.59,2.59,0,0,1-2.59,2.59h-37.8v16.92h31.12a2.69,2.69,0,0,1,2.59,2.59v14.87a2.59,2.59,0,0,1-2.59,2.59h-31.12V415h37.8a2.59,2.59,0,0,1,2.59,2.59v14.88a2.59,2.59,0,0,1-2.59,2.59h-56.5a2.59,2.59,0,0,1-2.59-2.59Z"/><path class="cls-1" d="M1117,359.56h-19.52a2.59,2.59,0,0,1-2.59-2.59V342.09a2.59,2.59,0,0,1,2.59-2.59H1158a2.59,2.59,0,0,1,2.59,2.59V357a2.59,2.59,0,0,1-2.59,2.59h-19.52v72.88a2.68,2.68,0,0,1-2.59,2.59h-16.38a2.68,2.68,0,0,1-2.59-2.59Z"/><path class="cls-1" d="M1179.75,431.48l42.72-91.85a2.77,2.77,0,0,1,2.32-1.5h1.36a2.79,2.79,0,0,1,2.32,1.5l42.72,91.85a2.41,2.41,0,0,1-2.32,3.55h-15.15c-2.46,0-3.55-.82-4.78-3.41L1244,420.84h-37.12L1202,431.76a5.08,5.08,0,0,1-4.91,3.27h-15A2.41,2.41,0,0,1,1179.75,431.48Zm56.09-29.21-10.37-22.52h-.14l-10.24,22.52Z"/><path class="cls-1" d="M1295.63,342.09a2.59,2.59,0,0,1,2.59-2.59H1339c17.34,0,29.75,13.24,29.75,29.48,0,12.56-7.51,22.66-20.2,27.43l18.7,34.67a2.58,2.58,0,0,1-2.32,4h-18.15a2.51,2.51,0,0,1-2.18-1.23l-18.15-36.17h-9.41v34.8a2.68,2.68,0,0,1-2.59,2.59h-16.24a2.59,2.59,0,0,1-2.59-2.59Zm41.62,38.21c5.59,0,10.37-4.51,10.37-10.92A10,10,0,0,0,1337.25,359h-20.2V380.3Z"/><path class="cls-1" d="M1405.09,342.09a2.68,2.68,0,0,1,2.59-2.59h16.38a2.68,2.68,0,0,1,2.59,2.59v90.35a2.68,2.68,0,0,1-2.59,2.59h-16.38a2.68,2.68,0,0,1-2.59-2.59Z"/><path class="cls-1" d="M1466.37,342.09a2.68,2.68,0,0,1,2.59-2.59h16.79a2.59,2.59,0,0,1,2.59,2.59V399c0,10,7.1,15.56,16.79,15.56s17.06-5.59,17.06-15.56V342.09a2.59,2.59,0,0,1,2.59-2.59h16.79a2.68,2.68,0,0,1,2.59,2.59v58c0,20.75-17.47,36.3-39,36.3s-38.76-15.56-38.76-36.3Z"/><path class="cls-1" d="M1593,340.31a2.61,2.61,0,0,1,2.46-2.18h2.19a3,3,0,0,1,2.32,1.37l31.66,59h.27l31.66-59a3,3,0,0,1,2.32-1.37h2.19a2.61,2.61,0,0,1,2.46,2.18L1686,432a2.5,2.5,0,0,1-2.59,3h-16.11a2.77,2.77,0,0,1-2.59-2.18l-6.14-42.17h-.27l-22.93,44.22a3.19,3.19,0,0,1-2.32,1.5h-2.46a3,3,0,0,1-2.32-1.5l-23.07-44.22h-.27l-6,42.17a2.65,2.65,0,0,1-2.59,2.18h-16.11a2.5,2.5,0,0,1-2.59-3Z"/></g></g></svg>