<svg xmlns="http://www.w3.org/2000/svg" viewBox="0 0 2378.03 587.26"><defs><style>.cls-1{fill:#fff;}.cls-2{fill:#231f20;}</style></defs><title>zooniverse-oxford-logo</title><g id="Layer_2" data-name="Layer 2"><g id="Layer_1-2" data-name="Layer 1"><rect y="338.13" width="809.68" height="249.13"/><path class="cls-1" d="M279.2,419.81c-2,2-5.14,3.57-9.85,3.57a14,14,0,0,1-10-3.68c-3.25-3.25-3.14-7.36-3.14-10.94v-22.2h4.87v22.74c0,2.76-.11,5.47,2.06,7.63a8.91,8.91,0,0,0,6.39,2.27,8.22,8.22,0,0,0,6-2.22c2.44-2.44,2.22-5.2,2.22-11.31V386.57h4.77v18.35C282.45,411.63,282.66,416.34,279.2,419.81Z"/><path class="cls-1" d="M317.25,422.68l-17.05-28.75.11,28.75h-4.44V386.57h4.82l17.06,28.86-.11-28.86h4.44v36.11Z"/><path class="cls-1" d="M336.63,422.68V386.57h4.87v36.11Z"/><path class="cls-1" d="M368.58,422.68h-5.36l-12.45-36.11h5L366,417.7l10.51-31.13h4.71Z"/><path class="cls-1" d="M390.71,422.68V386.57h20v4H395.48v11.37h14.29v3.9H395.48v12.72h15.65v4.11Z"/><path class="cls-1" d="M442,422.68l-4.17-9.42c-2.49-5.58-3.68-6.06-8.56-6.06H427v15.48h-4.76V386.57h8c4.82,0,8.56-.05,11.48,2.87a9.78,9.78,0,0,1,2.82,7.2,8.79,8.79,0,0,1-2.22,6.23,9.55,9.55,0,0,1-5.79,2.87,5,5,0,0,1,3.09,1.46c1.08,1.08,1.84,2.82,2.81,5l4.66,10.45Zm-3.85-30.37c-1.95-1.95-4.49-1.9-7.42-1.9H427v12.94h1.68c3.46,0,7,.11,9.26-2.17a6.47,6.47,0,0,0,1.79-4.55A6.27,6.27,0,0,0,438.17,392.31Z"/><path class="cls-1" d="M465.71,423.44a17.56,17.56,0,0,1-11.1-3.9l2.33-3.36c.65.43,4.17,3.09,8.56,3.09s7-2.65,7-6c0-4-4.42-5.9-8.32-7.8-4.6-2.22-8.57-4.6-8.57-9.91,0-5.74,4.65-9.75,11.31-9.75s10,3.3,10.29,3.68l-2.44,3.14a12,12,0,0,0-7.52-2.71c-4,0-6.77,1.95-6.77,5.2,0,3.41,3.19,4.67,6.77,6.52,3.19,1.62,10.29,4.1,10.29,11.19C477.56,418.83,473.18,423.44,465.71,423.44Z"/><path class="cls-1" d="M489,422.68V386.57h4.87v36.11Z"/><path class="cls-1" d="M518.73,390.57v32.11h-4.87V390.57H503.25v-4h26v4Z"/><path class="cls-1" d="M550.31,408.39v14.29h-4.82V408.39l-11.42-21.82h5.32l8.81,17,8.64-17h4.9Z"/><path class="cls-1" d="M602.14,423.38c-9.53,0-16.4-7.74-16.4-18.68,0-11.15,6.82-18.84,16.68-18.84,9.64,0,16.35,7.69,16.35,18.57C618.76,415.69,612,423.38,602.14,423.38Zm-.06-33.4c-6.87,0-11.37,5.79-11.37,14.62s5,14.62,11.64,14.62c7.52,0,11.42-6.44,11.42-14.94S609,390,602.08,390Z"/><path class="cls-1" d="M635.13,390.57v11.37H649v3.9H635.13v16.84h-4.82V386.57h19.55v4Z"/><path class="cls-1" d="M329.37,493.65c0,23.13-17.81,39.88-40.09,39.88-22.68,0-40.09-17-40.09-39,0-23.11,17.84-39.87,40.09-39.87,22.71,0,40.09,17,40.09,39Zm-12.91.42c0-21-10-35.19-27.18-35.19-18.66,0-27.14,17.17-27.14,35.19,0,21,10,35.27,27.14,35.27,18.69,0,27.18-17.21,27.18-35.27Z"/><path class="cls-1" d="M574.17,493.65c0,23.13-17.82,39.88-40.09,39.88-22.68,0-40.09-17-40.09-39,0-23.11,17.83-39.87,40.09-39.87,22.69,0,40.09,17,40.09,39Zm-12.93.42c0-21-10-35.19-27.16-35.19-18.67,0-27.15,17.17-27.15,35.19,0,21,10,35.27,27.15,35.27,18.66,0,27.16-17.21,27.16-35.27Z"/><path class="cls-1" d="M605.14,494.29h9.54c14.43,0,17.41-8.86,17.41-17.58,0-6.53-2.77-11.86-9.54-14.83-3.62-1.49-7-1.7-11.67-1.7h-5.73v34.11Zm17.4,12.57c-4.46-6.39-6.16-8.31-11.67-8.31h-5.73V524c0,2.13.64,3.18,3.18,3.62l8.7,1.7v3H582.67v-3l7.84-1.7c2.55-.65,3.17-1.48,3.17-3.62V464.23c0-2.13-.83-3.21-3.17-3.63l-7.84-1.71v-3h33.5c7,0,11.88.63,15.91,2.12A20.12,20.12,0,0,1,645,476.49c0,9.36-7,17.16-18.66,19.93v.43c2.34,1.05,3.61,2.56,11.88,13.4L648.84,524a8.5,8.5,0,0,0,5.93,4l7.22,1.27v3H643.54c-2.13,0-3.2-.65-5.1-3.22l-15.9-22.27Z"/><path class="cls-1" d="M473,482.24h3.61v25.27H473l-1.49-7.26c-.61-2.75-2.32-3.83-4.87-3.83H448.18V524c0,2.13.64,3.18,3.17,3.62l8.72,1.7v3H425.69v-3l7.84-1.7c2.56-.65,3.2-1.48,3.2-3.62V464.23c0-2.13-.85-3.21-3.2-3.63l-7.84-1.71v-3H483.6V475H480l-3-10.77c-.85-3-2.56-4-5.1-4H448.18v32h18.45c2.56,0,4.26-1,4.87-3.75l1.49-6.17Z"/><path class="cls-1" d="M668.14,532.35v-3l7.84-1.7c2.55-.65,3.19-1.48,3.19-3.62V464.23c0-2.13-.85-3.21-3.19-3.63l-7.84-1.71v-3H704c9.75,0,16.76,1.26,22.47,3.83,14.44,6.61,21,20.79,21,34.76,0,13.62-5.07,26.32-18,33.15-5.94,3.18-14.21,4.69-25,4.69Zm22.28-72.16v64.48c0,2.78.63,3.43,3.39,3.43h9.33c8.9,0,15.48-1.08,20.15-4.48,7.86-5.75,11.25-15.68,11.25-28.88,0-12.92-3.39-25.19-14-31.36-4.48-2.55-10.19-3.18-19.1-3.18Z"/><path class="cls-1" d="M359.51,529.35v3H332.13v-3l6.78-1.48c2.55-.65,4.46-1.48,6-3.43l22.92-29.28-22.92-30.93a9.63,9.63,0,0,0-5.74-3.84l-6.35-1.5v-3h33.73v3l-7.23,1.29c-2.32.42-2.11,1-.82,2.76l16.95,24h.43l17.59-23.57c1.28-1.7,1.28-2.55-.64-3l-6.78-1.5v-3h27.35v3l-6.77,1.5c-2.56.63-4.47,1.49-5.95,3.4l-21.82,27.37L403.2,524a9.64,9.64,0,0,0,5.75,3.83l6.34,1.48v3H381.55v-3l7.24-1.27c2.31-.43,2.09-1.08.84-2.78l-18.48-25.88h-.42L351.86,525.3c-1.28,1.7-1.48,2.13.85,2.57l6.8,1.48Z"/><path class="cls-1" d="M122.95,435.78c0-3.14-1.06-5.66-3.36-7a11.52,11.52,0,0,0-5.79-1.12H96.41v35.27h18.94c4.38,0,7,1,7.19,4.92H123Z"/><path class="cls-1" d="M126,435.78c0-3.14,1.06-5.66,3.36-7a11.52,11.52,0,0,1,5.79-1.12h17.52v35.27H133.58c-4.38,0-7,1-7.19,4.92H126Z"/><path class="cls-1" d="M156.49,429.89V467.7H129l-.38.93c-.45,1.11-1.26,2.13-4.12,2.13s-3.67-1-4.12-2.13l-.38-.93H92.56V429.89h-3v1l-2.1-.64a2.34,2.34,0,1,0-.79,2.57l2.88.89v2.89l-2.07-.37a2.33,2.33,0,1,0-.47,2.65l2.55.46v3l-2.18-.1a2.34,2.34,0,1,0-.13,2.69l2.3.1v3.21l-2.25.08a2.33,2.33,0,1,0,.1,2.69l2.15-.08v3l-2.48.43a2.34,2.34,0,1,0,.45,2.65l2-.35v2.89l-2.76.84a2.31,2.31,0,0,0-1.42-.49,2.33,2.33,0,1,0,2.21,3.07l2-.6V465l-3.08,1.33a2.34,2.34,0,1,0,1.06,2.48l2-.88v2.74h28.59c1.21,2,3.26,3.06,6.34,3.06s5.12-1,6.34-3.06h28.65v-40.8Z"/><ellipse class="cls-1" cx="105.76" cy="419.62" rx="10.42" ry="2"/><path class="cls-1" d="M120.11,404.71l-6,4.23-.05.43,1.43.64c.28.14.29.37.14.51l-3.78,3.19-.36,0-2.68-3.95c-.18-.26-.12-.51.2-.56l1.8-.29v-.45l-4.66-6.58h-.77l-4.66,6.58v.45l1.8.29c.32.05.39.31.2.56L100,413.68l-.36,0-3.53-3.19c-.14-.14-.14-.36.14-.51l1.43-.64-.05-.43-6.27-4.23-.51.2,3.68,11.24c1.87-.84,6.16-1.43,11.18-1.45s9.31.61,11.18,1.45l3.68-11.24Z"/><ellipse class="cls-1" cx="124.45" cy="495.01" rx="10.42" ry="2"/><path class="cls-1" d="M138.8,480.1l-6,4.23-.05.43,1.43.64c.28.14.29.37.14.5l-3.78,3.19-.36,0-2.68-3.94c-.18-.26-.12-.51.21-.57l1.8-.29v-.45l-4.66-6.58h-.77l-4.66,6.58v.45l1.8.29c.32.06.39.31.2.57l-2.68,3.94-.36,0-3.53-3.19c-.14-.14-.14-.36.14-.5l1.43-.64-.05-.43-6.27-4.23-.51.2,3.68,11.24c1.87-.84,6.16-1.43,11.18-1.45s9.31.61,11.18,1.45l3.68-11.24Z"/><ellipse class="cls-1" cx="143.09" cy="419.62" rx="10.42" ry="2"/><path class="cls-1" d="M157.44,404.71l-6,4.23-.05.43,1.43.64c.28.14.29.37.14.51l-3.78,3.19-.36,0-2.68-3.95c-.18-.26-.12-.51.2-.56l1.8-.29v-.45l-4.66-6.58h-.77l-4.66,6.58v.45l1.8.29c.32.05.39.31.2.56l-2.68,3.95-.36,0-3.53-3.23c-.14-.14-.14-.36.14-.51l1.44-.6-.05-.43-6.27-4.23-.51.2,3.68,11.24c1.87-.84,6.16-1.43,11.18-1.45s9.31.61,11.18,1.45L158,404.91Z"/><circle class="cls-1" cx="124.37" cy="374.45" r="2.14"/><circle class="cls-1" cx="174.28" cy="394.27" r="2.14" transform="translate(-228.52 547.81) rotate(-87.02)"/><path class="cls-2" d="M100.84,433.07a3.16,3.16,0,0,1,2.27.69,2.24,2.24,0,0,1,.67,1.59c0,1.94-1.47,2.77-3.27,2.77h-2v-.3c.57,0,.63-.1.63-.94v-2.57c0-.84-.06-.89-.57-.94v-.3Zm-.38,3.82c0,.69.17.82.54.82.67,0,1.35-.74,1.35-2.12,0-1.67-.85-2.14-1.51-2.14a.72.72,0,0,0-.33.06s0,.19,0,.39Z"/><path class="cls-2" d="M109.68,435.54a2.54,2.54,0,0,1-2.63,2.71,2.49,2.49,0,0,1-2.59-2.57,2.62,2.62,0,0,1,2.7-2.71A2.47,2.47,0,0,1,109.68,435.54Zm-3.77-.13c0,1.41.53,2.44,1.29,2.44s1-.65,1-2.05c0-1.56-.56-2.43-1.23-2.43S105.91,434,105.91,435.41Z"/><path class="cls-2" d="M116.55,433.07v.3c-.59.05-.62.09-.6.9l.08,2.61c0,.86,0,.89.6.94v.3h-2.43v-.3c.58-.06.61-.08.6-.94l0-2.74h0l-1.5,3.9h-.42l-1.42-3.62h0l-.06,1.73a8.54,8.54,0,0,0,0,1.28c0,.29.2.36.71.4v.3h-1.92v-.3c.37,0,.52-.11.57-.4s.08-.65.12-1.36l.09-1.57c.06-1,0-1.07-.62-1.12v-.3h1.83l1.36,3.08,1.19-3.08Z"/><path class="cls-2" d="M119.07,436.89c0,.84.06.89.6.94v.3h-2.52v-.3c.54,0,.6-.1.6-.94v-2.57c0-.84-.06-.89-.6-.94v-.3h2.52v.3c-.54,0-.6.1-.6.94Z"/><path class="cls-2" d="M106.54,447.52h-.67L103,443.85h0v1.43a12.37,12.37,0,0,0,.06,1.49c0,.27.25.37.76.4v.3h-1.94v-.3c.34,0,.54-.13.58-.4a12.32,12.32,0,0,0,.06-1.49v-1.43c0-.58,0-.68-.17-.89a.74.74,0,0,0-.59-.24v-.3h1.72l2.59,3.23h0v-1a12.46,12.46,0,0,0-.06-1.49c0-.27-.25-.37-.76-.4v-.3h2v.3c-.39,0-.59.13-.63.4a12,12,0,0,0-.07,1.49Z"/><path class="cls-2" d="M109.7,447.52l-1.55-4.05c-.25-.67-.41-.71-.79-.75v-.3h2.51v.3l-.26,0c-.29,0-.29.1-.2.38.14.43.76,2,1,2.73.24-.66.74-2.15.86-2.51s.12-.56-.23-.6l-.23,0v-.3h1.88v.3c-.45.06-.55.09-.86.8,0,.11-1,2.42-1.58,4Z"/><path class="cls-2" d="M113.2,445.86c.16.45.62,1.31,1.38,1.31a.69.69,0,0,0,.72-.77c0-.46-.3-.71-.78-.93l-.12-.06c-.64-.29-1.36-.7-1.36-1.53s.64-1.59,1.86-1.59a2.69,2.69,0,0,1,.72.09l.4.11c0,.3.09.68.17,1.21l-.34.05c-.17-.51-.44-1.07-1.06-1.07a.66.66,0,0,0-.68.68c0,.39.3.61.8.84l.17.08c.72.33,1.33.72,1.33,1.63a1.74,1.74,0,0,1-2,1.66,2.89,2.89,0,0,1-.84-.13,4.66,4.66,0,0,1-.49-.19c-.06-.36-.16-.78-.26-1.3Z"/><path class="cls-2" d="M103.09,455.55c0,.84.06.89.6.94v.3h-2.52v-.3c.54,0,.6-.1.6-.94V453c0-.84-.06-.89-.6-.94v-.3h2.52v.3c-.54,0-.6.1-.6.94Z"/><path class="cls-2" d="M106.17,455.65c0,.4,0,.6.15.67a1.29,1.29,0,0,0,.55.07,1,1,0,0,0,.75-.23,2,2,0,0,0,.38-.77l.33.05c0,.3-.21,1.1-.28,1.34h-3.86v-.3c.59,0,.65-.1.65-.94V453c0-.84-.06-.89-.58-.94v-.3h2.53v.3c-.56,0-.62.1-.62.94Z"/><path class="cls-2" d="M110.51,455.65c0,.4,0,.6.16.67a1.26,1.26,0,0,0,.54.07,1,1,0,0,0,.75-.23,2,2,0,0,0,.38-.77l.33.05c0,.3-.21,1.1-.28,1.34h-3.86v-.3c.59,0,.65-.1.65-.94V453c0-.84-.06-.89-.58-.94v-.3h2.53v.3c-.56,0-.62.1-.62.94Z"/><path class="cls-2" d="M114.22,456.85c-.54-1.4-1.27-3.32-1.55-4.05s-.41-.71-.79-.75v-.3h2.51v.3l-.26,0c-.29,0-.29.1-.2.37.14.43.76,2,1,2.73.24-.66.74-2.15.86-2.51s.12-.56-.23-.6l-.23,0v-.3h1.88v.3c-.44.05-.55.09-.86.8,0,.11-1,2.42-1.58,4Z"/><path class="cls-2" d="M135.71,433.24v.3c-.59.05-.62.08-.6.9l.08,2.61c0,.86,0,.89.6.94v.3h-2.43V438c.58-.06.61-.08.6-.94l0-2.74h0l-1.5,3.9H132l-1.42-3.62h0l-.05,1.73a8.39,8.39,0,0,0,0,1.28c0,.29.2.36.71.4v.3h-1.92V438c.37,0,.52-.11.57-.4a13.25,13.25,0,0,0,.12-1.36l.09-1.57c.05-1,0-1.07-.62-1.12v-.3h1.83l1.36,3.08,1.19-3.08Z"/><path class="cls-2" d="M138.23,437.05c0,.84.06.89.6.94v.3h-2.52V438c.54,0,.6-.1.6-.94v-2.57c0-.84-.06-.89-.6-.94v-.3h2.52v.3c-.54,0-.6.1-.6.94Z"/><path class="cls-2" d="M144,438.35h-.67l-2.88-3.67h0v1.43a12.38,12.38,0,0,0,.06,1.49c0,.27.25.37.76.4v.3h-1.93V438c.34,0,.54-.13.58-.4a11.82,11.82,0,0,0,.06-1.49v-1.43c0-.57,0-.68-.17-.89a.74.74,0,0,0-.59-.24v-.3h1.72l2.59,3.23h0v-1a12.52,12.52,0,0,0-.06-1.49c0-.27-.25-.37-.76-.4v-.3h2v.3c-.39,0-.59.12-.63.4a12.58,12.58,0,0,0-.06,1.49Z"/><path class="cls-2" d="M147.27,438l.24,0c.28,0,.3-.12.2-.4l-.28-.79h-1.28l-.23.75c-.1.34-.1.41.26.45l.22,0v.3h-1.81V438c.39-.06.52-.09.77-.74l1.56-4,.54-.11.53,1.47,1,2.64c.25.68.39.72.77.76v.3h-2.44Zm-1-1.69h1l-.49-1.49h0Z"/><path class="cls-2" d="M135.64,446.39c0,.84.06.89.71.94v.3h-2.72v-.3c.62,0,.68-.1.68-.94V443h-.13c-.52,0-.73.1-.86.24a1.92,1.92,0,0,0-.29.75h-.33c0-.65.08-1.19.09-1.59h.24c.12.18.19.19.4.19h3.1c.2,0,.24,0,.37-.19h.24c0,.33,0,1,.08,1.56l-.34,0a1.89,1.89,0,0,0-.32-.8,1.06,1.06,0,0,0-.76-.19h-.19Z"/><path class="cls-2" d="M139.72,446.39c0,.84.06.89.6.94v.3h-2.52v-.3c.54,0,.6-.1.6-.94v-2.57c0-.84-.06-.89-.6-.94v-.3h2.52v.3c-.54,0-.6.1-.6.94Z"/><path class="cls-2" d="M146.18,445a2.54,2.54,0,0,1-2.63,2.71,2.49,2.49,0,0,1-2.59-2.57,2.62,2.62,0,0,1,2.7-2.71A2.47,2.47,0,0,1,146.18,445Zm-3.77-.13c0,1.41.53,2.44,1.29,2.44s1-.65,1-2.05c0-1.56-.56-2.43-1.23-2.43S142.41,443.55,142.41,444.91Z"/><path class="cls-2" d="M137.94,451.91v.3c-.59.05-.62.09-.6.9l.08,2.61c0,.86,0,.89.6.94v.3h-2.43v-.3c.58-.06.61-.08.6-.94l0-2.74h0l-1.5,3.9h-.42l-1.42-3.62h0l-.05,1.73a8.56,8.56,0,0,0,0,1.28c0,.29.2.36.71.4v.3h-1.92v-.3c.37,0,.52-.11.57-.4s.08-.65.12-1.36l.09-1.57c.06-1,0-1.07-.62-1.12v-.3h1.83l1.36,3.08,1.19-3.08Z"/><path class="cls-2" d="M139.14,453.15c0-.84-.06-.89-.58-.94v-.3h3.68c0,.13,0,.7.09,1.28l-.34,0a1.43,1.43,0,0,0-.29-.72c-.12-.13-.38-.18-.79-.18h-.13c-.3,0-.31,0-.31.27v1.5h.39c.67,0,.69,0,.77-.64H142v1.84h-.34c-.08-.68-.1-.73-.77-.73h-.39v1.27c0,.41,0,.6.15.67a1.29,1.29,0,0,0,.54.07,1.16,1.16,0,0,0,.82-.23,2.27,2.27,0,0,0,.38-.8l.34.05a9.92,9.92,0,0,1-.27,1.38h-4v-.3c.6,0,.66-.1.66-.94Z"/><path class="cls-2" d="M145.44,456.66l.24,0c.28,0,.3-.12.2-.4l-.28-.79h-1.28l-.24.75c-.1.33-.1.41.26.45l.23,0v.3h-1.81v-.3c.4-.06.51-.09.77-.74l1.56-4,.54-.11.53,1.47c.33.93.67,1.84,1,2.64s.39.71.77.76v.3h-2.44Zm-1-1.69h1l-.49-1.48h0Z"/><circle class="cls-1" cx="115.22" cy="521" r="2.14"/><circle class="cls-1" cx="136.26" cy="524.45" r="2.14"/><path class="cls-1" d="M57.69,407.81Z"/><path class="cls-1" d="M140.89,384.39Z"/><path class="cls-1" d="M144.9,370.3Z"/><path class="cls-1" d="M178.39,411.54Z"/><path class="cls-1" d="M201.85,457.94Z"/><path class="cls-1" d="M194.53,479Z"/><path class="cls-1" d="M67.22,480.73a5.58,5.58,0,0,1,4.55,2.7,6.15,6.15,0,0,1,1.23,3.5c0,2.09-1,3.3-3.48,5L63,496.55,61.23,494l7.29-5.15a3.11,3.11,0,0,0,1.58-2.25,2.6,2.6,0,0,0-.57-1.71,2.39,2.39,0,0,0-2.1-1.19c-.77,0-1.51.47-3.07,1.57L58,489.41,56.32,487,63,482.57C64.8,481.32,65.94,480.72,67.22,480.73Z"/><path class="cls-1" d="M55.62,474.77l8.92-3.5,1,2.5L52,479l-1-2.61,7-8.87-9,3.14-1-2.63,13.58-4.75.9,2.46Z"/><path class="cls-1" d="M45.94,456.87l14.3-2.18.46,3-14.3,2.17Z"/><path class="cls-1" d="M59.73,445.2l-14.66,4.39.13-3.1,11-3-10.71-3.95.13-3,14.24,5.64Z"/><path class="cls-1" d="M47.15,428.74l2.4-8.43,2.38.68-1.57,5.51,3.23.92,1.47-5.17,2.34.66-1.47,5.17,3.55,1,1.61-5.67,2.42.69-2.45,8.59Z"/><path class="cls-1" d="M69.24,412.51,65,412.13c-2-.19-2.23.3-2.8,1.32l-.17.3,5.09,2.7-1.51,2.68-12.72-7,2.08-3.66c.94-1.69,1.94-3.48,4.49-3.48A3.7,3.7,0,0,1,63,410.15a2.87,2.87,0,0,1,2.55-.94c.52,0,1,.08,1.46.12l3.86.34Zm-10.68-4.38c-.74.21-1.12.78-1.67,1.76l-.48.82,3.51,1.89.59-1.06a2.43,2.43,0,0,0,.43-2,2.27,2.27,0,0,0-1-1.21A1.82,1.82,0,0,0,58.56,408.13Z"/><path class="cls-1" d="M75.64,384l2.46-1.85,8.7,11.55-2.46,1.85Z"/><path class="cls-1" d="M91.87,376.86l5.5,10.66-2.74,1.41-5.5-10.66-3.53,1.82-1.13-2.2,9.77-5,1.13,2.2Z"/><path class="cls-1" d="M108.8,377.64l1.39,5.6-2.86.71-1.4-5.6L99.42,371l3-.76,4.31,5,1.45-6.49,2.91-.71Z"/><path class="cls-1" d="M161.16,382.83l4.57,2.72-1.24,2.09-4.56-2.72-3.17,5.33-2.61-1.55,7.4-12.43,7.41,4.42-1.26,2.12-4.81-2.86Z"/><path class="cls-1" d="M187.16,429.82l4-4.35-5.74-1.36-.95-3,8.54,2.23,5.35-6.27,1,3.17-3.67,4,5.34,1.28.92,3L194,426.35,188.14,433l-1-3.14Z"/><path class="cls-1" d="M201,440.13l-3.36.27.36,5.34-2.42.16-.36-5.3L189,441l-.21-2.91,14.44-1.18.58,8.7-2.47.16-.37-5.67Z"/><path class="cls-1" d="M211.16,447.23a86.72,86.72,0,0,0-145.9-63.91,86.44,86.44,0,0,0,9.59,134.15A21.21,21.21,0,0,0,103.66,532c2.78.88,5.63,1.63,8.47,2.22a43.47,43.47,0,0,1-3.51,7.1l2.08,2.07a3,3,0,0,1,1.66-.49,3,3,0,0,1,3.09,3,3,3,0,0,1-3.31,3.08,4,4,0,0,1-3.62-2.45,14.27,14.27,0,0,0-.56,3.89c0,6.43,7,13.52,16.35,16.48,9.41-2.94,16.38-10,16.38-16.48a14.27,14.27,0,0,0-.56-3.89A4,4,0,0,1,136.5,549a3,3,0,0,1-3.3-3.08,3,3,0,0,1,3.09-3,3,3,0,0,1,1.67.49l1.91-1.9,0,0,.08-.1h0v-.05h0v0h0a42.49,42.49,0,0,1-2.1-6.24c15.52-2.13,28.62-8.72,39.05-19.68l0,0A85.82,85.82,0,0,0,211.16,447.23ZM95.42,530.76A18.18,18.18,0,0,1,79.5,503.92c.93.84,1.92,1.71,2.94,2.6a14.26,14.26,0,0,0-1.39,6.12c0,5.44,2.74,9.94,7.93,13a67.24,67.24,0,0,0,10,4.76A18.27,18.27,0,0,1,95.42,530.76Zm29-26.54a57.87,57.87,0,0,1-10-.88,21.18,21.18,0,0,0-25-11,57.63,57.63,0,1,1,35,11.87Zm12.3,1.66a20.78,20.78,0,0,0-2.73,8.71,89.85,89.85,0,0,1-14.29-5.12,4.45,4.45,0,0,1,4.28-2.35h.44A60.94,60.94,0,0,0,136.77,505.88Zm-18.44.95a6.57,6.57,0,0,0-1.2,1.4c-1.85-.78-5.42-2.45-6.58-3.15A52.78,52.78,0,0,0,118.33,506.83ZM95.42,494.4a18.23,18.23,0,0,1,15.08,8.1,57.2,57.2,0,0,1-8.61-2.88v0l-.08,0a14.55,14.55,0,0,0-18,4.59c-1.11-.61-2.21-1.26-3.29-1.94A18.08,18.08,0,0,1,95.42,494.4ZM136,540.24a5.89,5.89,0,0,0,.19,11.77,6,6,0,0,0,1.22-.13c-1,4.66-6.51,9.7-13.14,12-6.51-2.26-12.11-7.3-13.11-12a6,6,0,0,0,1.22.13,5.89,5.89,0,0,0,.19-11.77,38.47,38.47,0,0,0,2.49-5.43,67.71,67.71,0,0,0,11.35,1c2.89,0,5.71-.15,8.46-.42.37,1.42,1.26,4.13,1.5,4.84Zm-9.58-7.3a77,77,0,0,1-35.86-9.77c-3-1.74-6.48-5-6.48-10.52a11.51,11.51,0,0,1,.76-4.08,78.4,78.4,0,0,0,10,7.27,2.78,2.78,0,0,0,1.56.47,2.89,2.89,0,0,0,2.88-2.89,2.84,2.84,0,0,0-1.76-2.69c-2.08-.91-6.38-2.69-11-5.09a11.39,11.39,0,0,1,13.92-3.42l3.15,1.84c10,6.12,35.63,21.76,66.66,13.63C158.53,527.92,144.15,532.93,126.46,532.93ZM175,513.17a68.13,68.13,0,0,1-37.9,2.14c.35-4.74,2.12-10,5-10.79A60.71,60.71,0,1,0,86.24,493.6a21.33,21.33,0,0,0-8.22,7c-1-.69-2-1.41-2.85-2.14l-.57.57a37,37,0,0,0,2.64,2.77,20.81,20.81,0,0,0-3,10.77c0,.27,0,.53,0,.8A83.62,83.62,0,1,1,175,513.17Z"/><path class="cls-1" d="M78.27,399.56a5.6,5.6,0,0,1-1.62,3.73,7,7,0,0,1-4.52,2.47l-.63-2.4a6.19,6.19,0,0,0,3.13-1.69,2.65,2.65,0,0,0,.79-1.72,1.52,1.52,0,0,0-1.55-1.56c-1.26,0-3.36,1.82-5.51,1.82a3.66,3.66,0,0,1-2.71-1,4,4,0,0,1-1.35-3,5.4,5.4,0,0,1,1.56-3.57,6.67,6.67,0,0,1,4.24-2.29l.52,2.35a5.53,5.53,0,0,0-2.81,1.46,2.6,2.6,0,0,0-.77,1.67,1.24,1.24,0,0,0,1.3,1.28c1,0,3.63-1.89,5.75-1.89a3.47,3.47,0,0,1,2.69,1.08A4.35,4.35,0,0,1,78.27,399.56Z"/><path class="cls-1" d="M144.9,385a6.94,6.94,0,0,1-7-7c0-3.77,2.53-8.15,7.12-8.15a6.91,6.91,0,0,1,7.2,6.89C152.19,379.92,150,385,144.9,385Zm4.2-8.34a4.77,4.77,0,0,0-.83-2.85,3.57,3.57,0,0,0-2.88-1.43c-2.59,0-4.49,3.22-4.49,5.87a3.87,3.87,0,0,0,3.9,4.14C147.74,382.41,149.11,378.6,149.11,376.68Z"/><path class="cls-1" d="M185,415.92c-4.4,0-6.83-4.24-6.83-7.09,0-4.32,4.64-7.61,8.27-7.61,4,0,6.86,3.76,6.86,7.17C193.33,412.27,189.28,415.92,185,415.92Zm-.51-2.93c2.54,0,6.06-2.2,6.06-5.16a3.58,3.58,0,0,0-3.61-3.63c-2.38,0-6,2.11-6,5.1A3.65,3.65,0,0,0,184.52,413Z"/><path class="cls-1" d="M187.88,458.53a6.86,6.86,0,0,1,7.23-7.08c4,0,8,2.49,8,7,0,3.68-2.36,7.21-7.13,7.21C191.84,465.63,187.88,463,187.88,458.53Zm8.21,4c2.56,0,4.44-1.57,4.44-3.87,0-2.75-3.18-4.15-5.64-4.15-3.15,0-4.42,2-4.42,4C190.46,461.5,194.15,462.54,196.08,462.54Z"/><path class="cls-1" d="M182.38,475.59l4.3,0c2,0,2.2-.48,2.68-1.55l.14-.32-5.18-2.4,1.24-2.74,13.09,6L197,478.4c-1.15,2.54-2.13,3.81-4.53,3.81a3.82,3.82,0,0,1-3.79-3.64,4.41,4.41,0,0,1,.17-1.16c-.77,1.34-2.71,1.15-3.92,1.15l-3.87,0Zm8.39,1.61a2,2,0,0,0,2,2c.93,0,1.5-.51,2-1.71l.45-1.08-3.58-1.68-.6,1.33A2.85,2.85,0,0,0,190.76,477.2Z"/><path class="cls-1" d="M173.57,491.58c0-3,1.37-4.57,3.11-6.71l1.88-2.3,11.22,9.13-2.52,3.09c-1.42,1.75-3.1,3.9-6.32,3.9a7.41,7.41,0,0,1-4.58-1.78A7.22,7.22,0,0,1,173.57,491.58Zm7.71,4.24c1.53,0,2.41-.46,4.17-2.61l.55-.67-7.45-6.06-.92,1.13a5.24,5.24,0,0,0-1.36,3.24,4.82,4.82,0,0,0,2.1,3.77A4.61,4.61,0,0,0,181.28,495.83Z"/><polygon class="cls-2" points="4.57 5 4.57 42.31 141.54 42.31 0 214.62 0 245.77 196.33 245.77 196.33 208.46 54.79 208.46 196.33 36.15 196.33 5 4.57 5"/><path class="cls-2" d="M279.66,125.38v-.77c0-46.54,33.1-85,80.66-85s81.42,38.84,81.42,85.77v.77c0,46.54-33.48,85-80.66,85-47.56,0-81.42-38.84-81.42-85.77m-44.52,0v.77c0,67.69,51.37,123.84,124.8,123.84S485.5,193.08,485.5,125.38v-.77C485.5,56.92,434.13.77,360.7.77S235.14,57.69,235.14,125.38"/><polygon class="cls-2" points="1008.67 5 1008.67 171.54 880.44 5 841.25 5 841.25 245.77 882.73 245.77 882.73 74.62 1014.75 245.77 1050.14 245.77 1050.14 5 1008.67 5"/><rect class="cls-2" x="1110.64" y="5" width="42.24" height="240.77"/><polygon class="cls-2" points="1393.72 5 1321.8 190 1249.51 5 1203.09 5 1302.78 247.31 1339.69 247.31 1439.37 5 1393.72 5"/><polygon class="cls-2" points="1487.31 5 1487.31 245.77 1666.9 245.77 1666.9 208.07 1529.55 208.07 1529.55 143.46 1649.79 143.46 1649.79 105.39 1529.55 105.39 1529.55 42.69 1665 42.69 1665 5 1487.31 5"/><path class="cls-2" d="M1766.21,123.85V43.46h61.26c30.82,0,49.46,14.23,49.46,39.62v.77c0,24.62-19.41,40-49.46,40ZM1723.22,5h-.38V245.77h42.23V161.54h53.27l59,84.23h49.46l-64.68-91.16c33.48-9.23,57.07-33.46,57.07-72.69v-.77c0-21.15-7.23-38.85-19.78-51.92C1883.78,13.85,1860.19,5,1830.13,5Z"/><path class="cls-2" d="M1971.29,71.54v.77c0,44.23,28.92,59.61,79.9,71.92,44.52,10.38,54,19.62,54,36.54v.77c0,18.08-16.74,30.38-42.61,30.38-29.68,0-52.89-11.54-75.72-31.16l-25.49,30.38c28.92,26.15,63.54,38.47,100.07,38.47,50.22,0,85.61-26.93,85.61-71.92v-.77c0-40-26.26-58.46-76.86-70.77-45.66-11.15-56.69-19.23-56.69-37.69v-.77c0-16.15,14.46-28.84,39.19-28.84,22.07,0,43.37,8.85,65.06,25l22.45-31.92c-24.35-19.62-52.13-30.38-87.13-30.38-47.56,0-81.8,28.84-81.8,70"/><polygon class="cls-2" points="2198.44 5 2198.44 245.77 2378.03 245.77 2378.03 208.07 2240.68 208.07 2240.68 143.46 2360.91 143.46 2360.91 105.39 2240.68 105.39 2240.68 42.69 2376.13 42.69 2376.13 5 2198.44 5"/><path class="cls-2" d="M682.21,125a13.13,13.13,0,0,0-.38-3.84C699,108.08,714.93,95.39,729,83.85a90.33,90.33,0,0,1,9.89,41.54v.77c0,46.92-33.1,85-80.66,85a79.65,79.65,0,0,1-60.5-27.3c14.84-10.39,31.58-22.31,48.7-35.39a22.32,22.32,0,0,0,11,2.7c13.69,0,24.73-11.54,24.73-26.15m-105.4.38v-.77c0-46.92,33.1-85,80.67-85A79.63,79.63,0,0,1,718,66.92c-14.83,10.39-31.58,22.31-48.7,35.39a22.33,22.33,0,0,0-11-2.7c-13.7,0-24.73,11.54-24.73,26.16a13.14,13.14,0,0,0,.38,3.84c-17.12,13.08-33.1,25.77-47.18,37.31a90.31,90.31,0,0,1-9.89-41.54M533.06,125v.77a124.84,124.84,0,0,0,20.16,68.85c-20.54,18.08-32,30.38-30.05,32.69s16.74-5.39,39.57-20C584.8,233.08,618.29,250,657.86,250c73.43,0,125.56-57.31,125.56-125v-.77a124.77,124.77,0,0,0-20.17-68.84c20.17-17.69,31.58-30,30.06-32.69-1.9-2.31-16.74,5.38-39.57,20C731.67,16.92,698.19,0,658.62,0,585.19,0,533.06,57.31,533.06,125"/></g></g></svg>